<svg id="svg" version="1.1" xmlns="http://www.w3.org/2000/svg" xmlns:xlink="http://www.w3.org/1999/xlink" width="400" height="124.41679626749612" viewBox="0, 0, 400,124.41679626749612"><g id="svgg"><path id="path0" d="M0.792 0.347 C 0.631 0.523,0.500 0.742,0.500 0.833 C 0.500 0.925,0.388 1.000,0.250 1.000 C 0.028 1.000,0.000 7.907,0.000 62.167 C 0.000 116.426,0.028 123.333,0.250 123.333 C 0.388 123.333,0.500 123.408,0.500 123.500 C 0.500 123.592,0.650 123.817,0.833 124.000 C 1.166 124.332,1.389 124.333,66.921 124.333 L 132.675 124.333 132.775 123.833 C 132.849 123.462,132.968 123.333,133.237 123.333 C 133.991 123.333,134.000 123.257,134.000 116.967 C 134.000 111.234,133.988 111.000,133.686 111.000 C 133.512 111.000,133.333 110.851,133.285 110.667 C 133.150 110.150,129.167 110.150,129.167 110.667 C 129.167 110.889,129.056 111.000,128.833 111.000 C 128.611 111.000,128.500 111.111,128.500 111.333 C 128.500 111.517,128.350 111.817,128.167 112.000 C 127.857 112.309,127.833 112.556,127.833 115.417 L 127.833 118.500 126.000 118.500 C 124.481 118.500,124.167 118.543,124.167 118.750 C 124.167 118.972,118.000 119.000,69.667 119.000 C 21.333 119.000,15.167 118.972,15.167 118.750 C 15.167 118.534,14.528 118.500,10.417 118.500 L 5.667 118.500 5.667 62.167 L 5.667 5.833 8.813 5.833 C 11.274 5.833,12.000 5.784,12.149 5.605 C 12.253 5.479,12.648 5.335,13.026 5.284 C 13.757 5.186,13.993 4.970,13.997 4.394 C 13.999 4.180,14.133 4.004,14.333 3.952 C 14.832 3.821,14.832 1.368,14.333 0.917 C 14.150 0.751,14.000 0.477,14.000 0.308 C 14.000 -0.180,1.238 -0.141,0.792 0.347 M191.941 5.541 C 191.803 6.691,191.802 53.888,191.940 54.895 L 192.046 55.670 198.815 55.627 L 205.583 55.583 205.626 45.958 L 205.669 36.333 213.751 36.333 L 221.833 36.333 221.831 29.875 C 221.830 26.323,221.784 23.248,221.728 23.042 L 221.628 22.667 213.647 22.667 L 205.667 22.667 205.667 20.500 L 205.667 18.333 217.419 18.333 L 229.170 18.333 229.127 11.542 L 229.083 4.750 210.565 4.708 L 192.047 4.665 191.941 5.541 M231.280 4.776 C 231.218 4.838,231.167 16.315,231.167 30.280 L 231.167 55.670 237.958 55.627 L 244.750 55.583 244.750 30.167 L 244.750 4.750 238.071 4.706 C 234.398 4.683,231.342 4.714,231.280 4.776 M246.780 4.776 C 246.718 4.838,246.667 16.314,246.667 30.278 L 246.667 55.667 265.335 55.667 L 284.004 55.667 283.960 48.875 L 283.917 42.083 272.126 42.041 L 260.335 41.998 260.292 23.374 L 260.250 4.750 253.571 4.706 C 249.898 4.683,246.842 4.714,246.780 4.776 M285.911 4.873 C 285.867 4.989,285.850 16.446,285.874 30.333 L 285.917 55.583 292.708 55.627 L 299.500 55.670 299.500 42.252 C 299.500 28.944,299.503 28.833,299.833 28.833 C 300.056 28.833,300.167 28.944,300.167 29.167 C 300.167 29.389,300.278 29.500,300.500 29.500 C 300.722 29.500,300.833 29.611,300.833 29.833 C 300.833 30.017,300.937 30.167,301.064 30.167 C 301.191 30.167,301.334 30.317,301.382 30.500 C 301.430 30.683,301.588 30.833,301.734 30.833 C 301.880 30.833,302.000 30.946,302.000 31.083 C 302.000 31.222,302.148 31.333,302.333 31.333 C 302.556 31.333,302.667 31.444,302.667 31.667 C 302.667 31.889,302.778 32.000,303.000 32.000 C 303.222 32.000,303.333 32.111,303.333 32.333 C 303.333 32.517,303.437 32.667,303.564 32.667 C 303.691 32.667,303.834 32.817,303.882 33.000 C 303.930 33.183,304.088 33.333,304.234 33.333 C 304.380 33.333,304.500 33.446,304.500 33.583 C 304.500 33.722,304.648 33.833,304.833 33.833 C 305.056 33.833,305.167 33.944,305.167 34.167 C 305.167 34.389,305.278 34.500,305.500 34.500 C 305.722 34.500,305.833 34.611,305.833 34.833 C 305.833 35.019,305.944 35.167,306.083 35.167 C 306.221 35.167,306.333 35.279,306.333 35.417 C 306.333 35.556,306.481 35.667,306.667 35.667 C 306.889 35.667,307.000 35.778,307.000 36.000 C 307.000 36.293,307.111 36.333,307.917 36.333 C 308.722 36.333,308.833 36.293,308.833 36.000 C 308.833 35.778,308.944 35.667,309.167 35.667 C 309.350 35.667,309.500 35.563,309.500 35.436 C 309.500 35.309,309.650 35.166,309.833 35.118 C 310.017 35.070,310.167 34.912,310.167 34.766 C 310.167 34.620,310.279 34.500,310.417 34.500 C 310.556 34.500,310.667 34.352,310.667 34.167 C 310.667 33.944,310.778 33.833,311.000 33.833 C 311.183 33.833,311.333 33.730,311.333 33.603 C 311.333 33.476,311.483 33.333,311.667 33.285 C 311.850 33.237,312.000 33.087,312.000 32.952 C 312.000 32.816,312.150 32.666,312.333 32.618 C 312.517 32.570,312.667 32.412,312.667 32.266 C 312.667 32.120,312.779 32.000,312.917 32.000 C 313.056 32.000,313.167 31.852,313.167 31.667 C 313.167 31.444,313.278 31.333,313.500 31.333 C 313.683 31.333,313.833 31.230,313.833 31.103 C 313.833 30.976,313.983 30.833,314.167 30.785 C 314.350 30.737,314.500 30.587,314.500 30.452 C 314.500 30.316,314.650 30.166,314.833 30.118 C 315.017 30.070,315.167 29.912,315.167 29.766 C 315.167 29.620,315.279 29.500,315.417 29.500 C 315.556 29.500,315.667 29.352,315.667 29.167 C 315.667 28.944,315.778 28.833,316.000 28.833 C 316.331 28.833,316.333 28.944,316.333 42.252 L 316.333 55.670 323.125 55.627 L 329.917 55.583 329.959 30.387 C 329.997 7.646,329.976 5.166,329.739 4.929 C 329.280 4.471,316.502 4.538,316.382 5.000 C 316.334 5.183,316.199 5.333,316.082 5.333 C 315.844 5.333,315.667 5.696,315.667 6.180 C 315.667 6.356,315.554 6.500,315.417 6.500 C 315.278 6.500,315.167 6.648,315.167 6.833 C 315.167 7.056,315.056 7.167,314.833 7.167 C 314.648 7.167,314.500 7.278,314.500 7.417 C 314.500 7.554,314.350 7.817,314.167 8.000 C 313.983 8.183,313.833 8.475,313.833 8.647 C 313.833 8.821,313.684 9.000,313.500 9.048 C 313.317 9.096,313.167 9.255,313.167 9.401 C 313.167 9.547,313.054 9.667,312.917 9.667 C 312.742 9.667,312.667 9.843,312.667 10.250 C 312.667 10.722,312.603 10.833,312.333 10.833 C 312.111 10.833,312.000 10.944,312.000 11.167 C 312.000 11.389,311.889 11.500,311.667 11.500 C 311.444 11.500,311.333 11.611,311.333 11.833 C 311.333 12.017,311.229 12.167,311.102 12.167 C 310.969 12.167,310.824 12.416,310.761 12.750 C 310.695 13.099,310.554 13.333,310.409 13.333 C 310.276 13.333,310.167 13.483,310.167 13.667 C 310.167 13.889,310.056 14.000,309.833 14.000 C 309.611 14.000,309.500 14.111,309.500 14.333 C 309.500 14.517,309.396 14.667,309.268 14.667 C 309.017 14.667,308.833 15.016,308.833 15.494 C 308.833 15.659,308.683 15.834,308.500 15.882 C 308.317 15.930,308.167 16.088,308.167 16.234 C 308.167 16.617,307.722 16.562,307.618 16.167 C 307.570 15.983,307.420 15.833,307.285 15.833 C 307.150 15.833,307.000 15.683,306.952 15.500 C 306.904 15.317,306.745 15.167,306.599 15.167 C 306.414 15.167,306.333 15.013,306.333 14.661 C 306.333 14.372,306.229 14.116,306.090 14.063 C 305.956 14.011,305.801 13.826,305.745 13.651 C 305.690 13.476,305.537 13.333,305.405 13.333 C 305.274 13.333,305.167 13.230,305.167 13.103 C 305.167 12.976,305.017 12.833,304.833 12.785 C 304.588 12.721,304.500 12.558,304.500 12.167 C 304.500 11.776,304.412 11.612,304.167 11.548 C 303.982 11.500,303.833 11.321,303.833 11.147 C 303.833 10.975,303.721 10.833,303.583 10.833 C 303.446 10.833,303.333 10.735,303.333 10.615 C 303.333 10.495,303.183 10.235,303.000 10.038 C 302.817 9.842,302.667 9.558,302.667 9.408 C 302.667 9.258,302.517 9.096,302.333 9.048 C 302.149 9.000,302.000 8.821,302.000 8.647 C 302.000 8.444,301.882 8.333,301.667 8.333 C 301.407 8.333,301.333 8.222,301.333 7.828 C 301.333 7.549,301.229 7.283,301.100 7.233 C 300.971 7.184,300.828 6.999,300.782 6.822 C 300.736 6.645,300.578 6.500,300.432 6.500 C 300.286 6.500,300.167 6.380,300.167 6.234 C 300.167 6.088,300.021 5.931,299.843 5.884 C 299.624 5.827,299.502 5.628,299.468 5.275 L 299.417 4.750 292.704 4.706 C 287.423 4.672,285.974 4.708,285.911 4.873 M166.542 67.036 C 166.335 67.136,166.167 67.281,166.167 67.359 C 166.167 67.436,164.638 67.500,162.770 67.500 C 159.955 67.500,159.339 67.543,159.167 67.750 C 159.053 67.887,158.790 68.000,158.584 68.000 C 157.852 68.000,157.167 68.211,157.167 68.438 C 157.167 68.594,156.955 68.667,156.500 68.667 C 156.056 68.667,155.722 68.778,155.500 69.000 C 155.310 69.190,154.944 69.333,154.651 69.333 C 154.276 69.333,154.112 69.424,154.048 69.667 C 153.986 69.904,153.821 70.000,153.475 70.000 C 153.197 70.000,152.949 70.107,152.894 70.250 C 152.841 70.387,152.656 70.500,152.482 70.500 C 152.278 70.500,152.167 70.617,152.167 70.833 C 152.167 71.092,152.056 71.167,151.668 71.167 C 151.350 71.167,151.094 71.287,150.961 71.500 C 150.847 71.683,150.664 71.833,150.554 71.833 C 150.445 71.833,150.308 71.983,150.250 72.167 C 150.192 72.350,150.037 72.500,149.905 72.500 C 149.774 72.500,149.667 72.612,149.667 72.750 C 149.667 72.889,149.519 73.000,149.333 73.000 C 149.111 73.000,149.000 73.111,149.000 73.333 C 149.000 73.556,148.889 73.667,148.667 73.667 C 148.444 73.667,148.333 73.778,148.333 74.000 C 148.333 74.183,148.226 74.333,148.095 74.333 C 147.963 74.333,147.808 74.483,147.750 74.667 C 147.692 74.850,147.537 75.000,147.405 75.000 C 147.274 75.000,147.167 75.112,147.167 75.250 C 147.167 75.389,147.019 75.500,146.833 75.500 C 146.611 75.500,146.500 75.611,146.500 75.833 C 146.500 76.017,146.396 76.167,146.268 76.167 C 146.013 76.167,145.833 76.517,145.833 77.014 C 145.833 77.189,145.721 77.333,145.583 77.333 C 145.446 77.333,145.333 77.475,145.333 77.647 C 145.333 77.821,145.184 78.000,145.000 78.048 C 144.745 78.115,144.667 78.276,144.667 78.734 C 144.667 79.222,144.605 79.333,144.333 79.333 C 144.066 79.333,144.000 79.444,144.000 79.897 C 144.000 80.321,143.917 80.483,143.667 80.548 C 143.411 80.615,143.333 80.776,143.333 81.234 C 143.333 81.656,143.259 81.833,143.083 81.833 C 142.892 81.833,142.833 82.044,142.833 82.731 C 142.833 83.488,142.781 83.641,142.500 83.715 C 142.206 83.792,142.167 83.942,142.167 84.984 C 142.167 85.880,142.111 86.167,141.936 86.167 C 141.344 86.167,141.244 98.260,141.833 98.628 C 142.111 98.801,142.167 99.017,142.167 99.918 C 142.167 100.889,142.201 101.000,142.500 101.000 C 142.793 101.000,142.833 101.111,142.833 101.917 C 142.833 102.620,142.891 102.833,143.083 102.833 C 143.259 102.833,143.333 103.011,143.333 103.432 C 143.333 103.891,143.411 104.052,143.667 104.118 C 143.917 104.184,144.000 104.346,144.000 104.769 C 144.000 105.222,144.066 105.333,144.333 105.333 C 144.605 105.333,144.667 105.444,144.667 105.932 C 144.667 106.391,144.745 106.552,145.000 106.618 C 145.183 106.666,145.333 106.809,145.333 106.936 C 145.333 107.063,145.446 107.167,145.583 107.167 C 145.737 107.167,145.833 107.323,145.833 107.570 C 145.833 108.145,145.999 108.500,146.268 108.500 C 146.396 108.500,146.500 108.620,146.500 108.766 C 146.500 108.912,146.650 109.070,146.833 109.118 C 147.017 109.166,147.167 109.309,147.167 109.436 C 147.167 109.563,147.274 109.667,147.405 109.667 C 147.537 109.667,147.692 109.817,147.750 110.000 C 147.808 110.183,147.963 110.333,148.095 110.333 C 148.226 110.333,148.333 110.483,148.333 110.667 C 148.333 110.882,148.444 111.000,148.647 111.000 C 148.821 111.000,149.000 111.149,149.048 111.333 C 149.096 111.517,149.255 111.667,149.401 111.667 C 149.547 111.667,149.667 111.779,149.667 111.917 C 149.667 112.054,149.770 112.167,149.897 112.167 C 150.024 112.167,150.167 112.317,150.215 112.500 C 150.263 112.683,150.422 112.833,150.568 112.833 C 150.714 112.833,150.833 112.938,150.833 113.066 C 150.833 113.334,151.188 113.500,151.764 113.500 C 152.011 113.500,152.167 113.597,152.167 113.750 C 152.167 113.888,152.274 114.000,152.405 114.000 C 152.537 114.000,152.692 114.150,152.750 114.333 C 152.829 114.581,153.002 114.667,153.428 114.667 C 153.889 114.667,154.000 114.731,154.000 115.000 C 154.000 115.270,154.111 115.333,154.583 115.333 C 154.971 115.333,155.167 115.411,155.167 115.566 C 155.167 115.831,155.521 116.000,156.079 116.000 C 156.291 116.000,156.508 116.112,156.560 116.250 C 156.627 116.424,156.899 116.500,157.455 116.500 C 158.073 116.500,158.300 116.575,158.461 116.833 C 158.643 117.124,158.850 117.167,160.065 117.167 C 161.321 117.167,161.470 117.200,161.548 117.500 C 161.633 117.823,161.776 117.833,166.083 117.833 C 170.391 117.833,170.534 117.823,170.618 117.500 C 170.697 117.198,170.846 117.167,172.202 117.167 C 173.558 117.167,173.706 117.135,173.785 116.833 C 173.857 116.557,174.012 116.500,174.691 116.500 C 175.266 116.500,175.539 116.425,175.606 116.250 C 175.659 116.112,175.876 116.000,176.088 116.000 C 176.646 116.000,177.000 115.831,177.000 115.566 C 177.000 115.411,177.196 115.333,177.583 115.333 C 178.056 115.333,178.167 115.270,178.167 115.000 C 178.167 114.783,178.278 114.667,178.486 114.667 C 178.983 114.667,179.333 114.487,179.333 114.232 C 179.333 114.104,179.486 114.000,179.672 114.000 C 179.858 114.000,180.054 113.888,180.106 113.750 C 180.159 113.612,180.307 113.500,180.434 113.500 C 180.562 113.500,180.667 113.350,180.667 113.167 C 180.667 112.954,180.778 112.833,180.974 112.833 C 181.143 112.833,181.417 112.683,181.583 112.500 C 181.749 112.317,182.023 112.167,182.192 112.167 C 182.389 112.167,182.500 112.046,182.500 111.833 C 182.500 111.650,182.604 111.500,182.732 111.500 C 182.987 111.500,183.167 111.150,183.167 110.653 C 183.167 110.444,183.283 110.333,183.500 110.333 C 183.722 110.333,183.833 110.222,183.833 110.000 C 183.833 109.778,183.944 109.667,184.167 109.667 C 184.389 109.667,184.500 109.556,184.500 109.333 C 184.500 109.148,184.611 109.000,184.750 109.000 C 184.925 109.000,185.000 108.824,185.000 108.417 C 185.000 107.944,185.063 107.833,185.333 107.833 C 185.591 107.833,185.667 107.722,185.667 107.345 C 185.667 107.002,185.766 106.824,186.000 106.750 C 186.205 106.685,186.333 106.498,186.333 106.265 C 186.333 106.056,186.483 105.749,186.667 105.583 C 186.869 105.400,187.000 105.070,187.000 104.742 C 187.000 104.416,187.099 104.164,187.250 104.106 C 187.425 104.039,187.500 103.766,187.500 103.191 C 187.500 102.512,187.557 102.357,187.833 102.285 C 188.115 102.211,188.167 102.058,188.167 101.285 C 188.167 100.512,188.218 100.359,188.500 100.285 C 188.826 100.200,188.833 100.058,188.833 93.764 L 188.833 87.331 178.292 87.374 L 167.750 87.417 167.750 92.333 L 167.750 97.250 171.458 97.295 L 175.167 97.340 175.167 97.920 C 175.167 98.389,175.103 98.500,174.833 98.500 C 174.557 98.500,174.500 98.611,174.500 99.147 C 174.500 99.654,174.428 99.813,174.167 99.882 C 173.924 99.945,173.833 100.109,173.833 100.484 C 173.833 100.832,173.752 101.000,173.583 101.000 C 173.444 101.000,173.333 101.148,173.333 101.333 C 173.333 101.556,173.222 101.667,173.000 101.667 C 172.778 101.667,172.667 101.778,172.667 102.000 C 172.667 102.222,172.556 102.333,172.333 102.333 C 172.150 102.333,172.000 102.440,172.000 102.570 C 172.000 102.700,171.770 102.857,171.489 102.919 C 171.208 102.981,170.937 103.137,170.888 103.266 C 170.834 103.405,170.562 103.500,170.217 103.500 C 169.776 103.500,169.614 103.580,169.548 103.833 C 169.465 104.152,169.321 104.167,166.232 104.167 C 163.183 104.167,162.991 104.148,162.795 103.833 C 162.646 103.596,162.406 103.500,161.960 103.500 C 161.523 103.500,161.333 103.427,161.333 103.258 C 161.333 103.112,161.099 102.971,160.750 102.906 C 160.416 102.843,160.167 102.697,160.167 102.565 C 160.167 102.420,159.984 102.333,159.678 102.333 C 159.336 102.333,159.157 102.234,159.083 102.000 C 159.025 101.817,158.833 101.667,158.655 101.667 C 158.444 101.667,158.333 101.552,158.333 101.333 C 158.333 101.111,158.222 101.000,158.000 101.000 C 157.777 101.000,157.667 100.889,157.667 100.665 C 157.667 100.481,157.517 100.202,157.333 100.045 C 157.150 99.888,157.000 99.626,157.000 99.463 C 157.000 99.300,156.887 99.167,156.750 99.167 C 156.612 99.167,156.500 99.057,156.500 98.923 C 156.500 98.788,156.350 98.598,156.167 98.500 C 155.920 98.368,155.833 98.151,155.833 97.662 C 155.833 97.183,155.742 96.946,155.500 96.795 C 155.210 96.614,155.167 96.406,155.167 95.205 C 155.167 94.130,155.111 93.802,154.917 93.727 C 154.734 93.657,154.667 93.370,154.667 92.667 C 154.667 91.963,154.734 91.676,154.917 91.606 C 155.117 91.530,155.167 91.164,155.167 89.775 C 155.167 88.179,155.194 88.032,155.500 87.952 C 155.755 87.885,155.833 87.724,155.833 87.266 C 155.833 86.853,155.909 86.667,156.076 86.667 C 156.221 86.667,156.362 86.433,156.428 86.083 C 156.490 85.749,156.636 85.500,156.769 85.500 C 156.896 85.500,157.000 85.367,157.000 85.204 C 157.000 85.041,157.150 84.779,157.333 84.622 C 157.517 84.465,157.667 84.186,157.667 84.002 C 157.667 83.785,157.777 83.667,157.980 83.667 C 158.152 83.667,158.392 83.546,158.514 83.399 C 158.636 83.252,158.908 83.067,159.118 82.987 C 159.328 82.907,159.500 82.727,159.500 82.587 C 159.500 82.448,159.632 82.333,159.793 82.333 C 159.955 82.333,160.180 82.183,160.295 82.000 C 160.453 81.747,160.683 81.667,161.251 81.667 C 161.806 81.667,162.000 81.602,162.000 81.417 C 162.000 81.222,162.222 81.167,163.000 81.167 C 163.778 81.167,164.074 81.093,164.333 80.833 C 164.659 80.508,164.889 80.500,173.919 80.500 L 183.170 80.500 183.127 73.708 L 183.083 66.917 175.000 66.885 C 169.445 66.864,166.799 66.911,166.542 67.036 M190.745 67.038 C 190.701 67.155,190.684 78.612,190.707 92.500 L 190.750 117.750 197.500 117.750 L 204.250 117.750 204.293 109.708 L 204.337 101.667 206.192 101.667 C 207.648 101.667,208.086 101.720,208.232 101.917 C 208.370 102.104,208.932 102.194,210.458 102.276 L 212.500 102.385 212.500 102.851 C 212.500 103.107,212.603 103.377,212.729 103.450 C 212.871 103.533,212.987 103.988,213.033 104.647 C 213.085 105.386,213.193 105.774,213.387 105.916 C 213.596 106.068,213.667 106.378,213.667 107.142 C 213.667 107.983,213.726 108.201,214.000 108.372 C 214.279 108.546,214.333 108.761,214.333 109.696 C 214.333 110.664,214.377 110.825,214.667 110.917 C 214.958 111.009,215.000 111.169,215.000 112.178 C 215.000 113.094,215.052 113.333,215.250 113.333 C 215.440 113.333,215.501 113.543,215.502 114.208 C 215.505 115.308,215.643 115.833,215.928 115.833 C 216.081 115.833,216.165 116.129,216.200 116.792 L 216.250 117.750 223.042 117.794 L 229.833 117.837 229.833 116.070 C 229.833 114.442,229.807 114.295,229.500 114.215 C 229.205 114.138,229.167 113.988,229.167 112.897 C 229.167 111.915,229.116 111.667,228.917 111.667 C 228.726 111.667,228.666 111.457,228.664 110.792 C 228.662 109.683,228.524 109.167,228.231 109.167 C 228.056 109.167,228.000 108.880,228.000 107.984 C 228.000 106.942,227.960 106.792,227.667 106.715 C 227.374 106.638,227.333 106.488,227.333 105.465 C 227.333 104.442,227.293 104.292,227.000 104.215 C 226.705 104.138,226.667 103.988,226.667 102.897 C 226.667 101.915,226.616 101.667,226.417 101.667 C 226.223 101.667,226.167 101.446,226.167 100.680 C 226.167 99.543,226.059 99.167,225.732 99.167 C 225.554 99.167,225.500 98.874,225.500 97.917 C 225.500 96.778,225.530 96.667,225.833 96.667 C 226.056 96.667,226.167 96.556,226.167 96.333 C 226.167 96.148,226.278 96.000,226.417 96.000 C 226.591 96.000,226.667 95.824,226.667 95.417 C 226.667 94.944,226.730 94.833,227.000 94.833 C 227.222 94.833,227.333 94.722,227.333 94.500 C 227.333 94.278,227.444 94.167,227.667 94.167 C 227.934 94.167,228.000 94.056,228.000 93.603 C 228.000 93.179,228.083 93.017,228.333 92.952 C 228.589 92.885,228.667 92.724,228.667 92.266 C 228.667 91.844,228.741 91.667,228.917 91.667 C 229.090 91.667,229.167 91.492,229.167 91.095 C 229.167 90.669,229.252 90.495,229.500 90.417 C 229.790 90.325,229.833 90.164,229.833 89.175 C 229.833 88.179,229.874 88.028,230.167 87.952 C 230.486 87.868,230.500 87.724,230.500 84.583 C 230.500 81.442,230.486 81.298,230.167 81.215 C 229.874 81.138,229.833 80.988,229.833 79.965 C 229.833 78.942,229.793 78.792,229.500 78.715 C 229.240 78.647,229.167 78.488,229.167 77.992 C 229.167 77.643,229.066 77.256,228.942 77.133 C 228.819 77.009,228.665 76.629,228.601 76.287 C 228.530 75.909,228.390 75.667,228.242 75.667 C 228.109 75.667,228.000 75.517,228.000 75.333 C 228.000 75.111,227.889 75.000,227.667 75.000 C 227.460 75.000,227.333 74.889,227.333 74.707 C 227.333 74.545,227.183 74.320,227.000 74.205 C 226.817 74.091,226.667 73.852,226.667 73.674 C 226.667 73.316,225.987 72.500,225.689 72.500 C 225.585 72.500,225.500 72.350,225.500 72.167 C 225.500 71.951,225.389 71.833,225.186 71.833 C 225.012 71.833,224.833 71.684,224.785 71.500 C 224.737 71.317,224.578 71.167,224.432 71.167 C 224.286 71.167,224.167 71.060,224.167 70.930 C 224.167 70.800,223.937 70.643,223.655 70.581 C 223.374 70.519,223.104 70.363,223.054 70.234 C 223.005 70.105,222.822 70.000,222.649 70.000 C 222.444 70.000,222.333 69.883,222.333 69.667 C 222.333 69.397,222.222 69.333,221.750 69.333 C 221.278 69.333,221.167 69.270,221.167 69.000 C 221.167 68.722,221.056 68.667,220.500 68.667 C 220.043 68.667,219.833 68.594,219.833 68.436 C 219.833 68.174,219.333 68.006,218.542 68.002 C 218.172 68.001,218.000 67.920,218.000 67.750 C 218.000 67.539,217.612 67.500,215.508 67.500 C 213.308 67.500,212.997 67.466,212.853 67.208 C 212.639 66.826,190.890 66.658,190.745 67.038 M242.533 67.033 C 242.405 67.161,242.333 67.816,242.333 68.855 C 242.333 70.331,242.303 70.487,242.000 70.583 C 241.699 70.679,241.667 70.836,241.667 72.178 C 241.667 73.334,241.615 73.667,241.436 73.667 C 241.122 73.667,241.005 74.195,241.002 75.625 C 241.000 76.587,240.949 76.833,240.750 76.833 C 240.546 76.833,240.500 77.110,240.500 78.322 C 240.500 79.664,240.467 79.821,240.167 79.917 C 239.867 80.012,239.833 80.169,239.833 81.492 C 239.833 82.821,239.802 82.969,239.500 83.048 C 239.197 83.127,239.167 83.276,239.167 84.651 C 239.167 85.826,239.115 86.167,238.938 86.167 C 238.658 86.167,238.500 86.889,238.500 88.170 C 238.500 88.870,238.432 89.157,238.250 89.227 C 238.053 89.302,238.000 89.644,238.000 90.828 C 238.000 92.222,237.975 92.333,237.667 92.333 C 237.357 92.333,237.333 92.444,237.333 93.917 C 237.333 95.389,237.310 95.500,237.000 95.500 C 236.691 95.500,236.667 95.611,236.667 97.000 C 236.667 98.150,236.614 98.500,236.441 98.500 C 236.277 98.500,236.186 98.898,236.106 99.958 C 236.031 100.951,235.916 101.476,235.748 101.602 C 235.569 101.735,235.500 102.118,235.500 102.977 C 235.500 103.944,235.438 104.229,235.167 104.500 C 234.896 104.771,234.833 105.056,234.833 106.023 C 234.833 106.958,234.772 107.258,234.546 107.424 C 234.327 107.583,234.243 107.947,234.194 108.942 C 234.150 109.827,234.055 110.293,233.898 110.383 C 233.728 110.481,233.667 110.911,233.667 112.008 C 233.667 113.389,233.642 113.500,233.333 113.500 C 233.017 113.500,233.000 113.611,233.000 115.667 L 233.000 117.833 239.833 117.833 L 246.667 117.833 246.667 116.667 C 246.667 115.722,246.730 115.437,247.000 115.167 C 247.277 114.890,247.333 114.611,247.333 113.518 C 247.333 112.502,247.390 112.180,247.583 112.106 C 247.780 112.031,247.833 111.689,247.833 110.505 C 247.833 109.330,247.884 109.000,248.066 109.000 C 248.420 109.000,248.500 108.613,248.500 106.903 C 248.500 105.444,248.524 105.333,248.833 105.333 C 249.019 105.333,249.167 105.222,249.167 105.083 C 249.167 104.868,249.731 104.833,253.250 104.833 C 256.769 104.833,257.333 104.868,257.333 105.083 C 257.333 105.221,257.446 105.333,257.583 105.333 C 257.787 105.333,257.833 105.608,257.833 106.808 C 257.833 108.070,257.881 108.325,258.167 108.583 C 258.452 108.842,258.500 109.097,258.500 110.358 C 258.500 111.650,258.541 111.856,258.833 112.039 C 259.125 112.221,259.167 112.427,259.167 113.698 C 259.167 114.793,259.226 115.183,259.408 115.285 C 259.575 115.378,259.665 115.783,259.700 116.585 L 259.750 117.750 266.542 117.794 L 273.333 117.837 273.333 116.747 C 273.333 115.931,273.270 115.632,273.083 115.560 C 272.894 115.488,272.833 115.177,272.831 114.274 C 272.828 112.861,272.710 112.333,272.397 112.333 C 272.217 112.333,272.167 111.987,272.167 110.750 C 272.167 109.278,272.143 109.167,271.833 109.167 C 271.523 109.167,271.500 109.056,271.500 107.583 C 271.500 106.287,271.455 106.000,271.250 106.000 C 271.049 106.000,271.000 105.742,271.000 104.675 C 271.000 103.441,270.779 102.500,270.490 102.500 C 270.422 102.500,270.340 101.819,270.308 100.986 C 270.262 99.782,270.190 99.429,269.958 99.260 C 269.720 99.085,269.667 98.786,269.667 97.618 C 269.667 96.336,269.633 96.178,269.333 96.083 C 269.033 95.988,269.000 95.831,269.000 94.489 C 269.000 93.277,268.954 93.000,268.750 93.000 C 268.551 93.000,268.500 92.754,268.498 91.792 C 268.495 90.361,268.378 89.833,268.064 89.833 C 267.884 89.833,267.833 89.497,267.833 88.318 C 267.833 86.942,267.803 86.794,267.500 86.715 C 267.198 86.636,267.167 86.488,267.167 85.147 C 267.167 83.889,267.117 83.617,266.833 83.333 C 266.552 83.052,266.500 82.778,266.500 81.578 C 266.500 80.468,266.445 80.135,266.250 80.060 C 266.065 79.989,266.000 79.695,266.000 78.920 C 266.000 77.560,265.848 76.833,265.563 76.833 C 265.385 76.833,265.333 76.493,265.333 75.318 C 265.333 73.942,265.303 73.794,265.000 73.715 C 264.698 73.636,264.667 73.488,264.667 72.158 C 264.667 70.836,264.633 70.679,264.333 70.583 C 264.033 70.488,264.000 70.331,264.000 68.989 C 264.000 68.170,263.930 67.500,263.845 67.500 C 263.759 67.500,263.642 67.350,263.583 67.167 C 263.454 66.758,242.938 66.628,242.533 67.033 M275.910 67.042 C 275.867 67.156,275.850 78.612,275.874 92.500 L 275.917 117.750 282.708 117.794 L 289.500 117.837 289.500 109.752 L 289.500 101.667 296.016 101.667 C 302.391 101.667,302.533 101.659,302.618 101.333 C 302.692 101.052,302.846 101.000,303.603 101.000 C 304.389 101.000,304.500 100.959,304.500 100.667 C 304.500 100.396,304.611 100.333,305.089 100.333 C 305.458 100.333,305.713 100.240,305.773 100.083 C 305.829 99.938,306.078 99.833,306.367 99.833 C 306.724 99.833,306.889 99.739,306.952 99.500 C 307.017 99.250,307.179 99.167,307.603 99.167 C 308.056 99.167,308.167 99.101,308.167 98.833 C 308.167 98.626,308.278 98.500,308.460 98.500 C 308.621 98.500,308.847 98.350,308.961 98.167 C 309.076 97.983,309.315 97.833,309.493 97.833 C 309.671 97.833,309.877 97.734,309.950 97.612 C 310.023 97.491,310.215 97.343,310.375 97.284 C 310.535 97.225,310.667 97.062,310.667 96.922 C 310.667 96.778,310.812 96.667,311.000 96.667 C 311.222 96.667,311.333 96.556,311.333 96.333 C 311.333 96.150,311.438 96.000,311.566 96.000 C 311.820 96.000,312.000 95.650,312.000 95.153 C 312.000 94.972,312.115 94.833,312.266 94.833 C 312.412 94.833,312.570 94.683,312.618 94.500 C 312.666 94.317,312.809 94.167,312.936 94.167 C 313.063 94.167,313.167 94.035,313.167 93.873 C 313.167 93.712,313.317 93.487,313.500 93.372 C 313.683 93.258,313.833 92.995,313.833 92.789 C 313.833 92.582,313.983 92.320,314.167 92.205 C 314.409 92.054,314.500 91.817,314.500 91.338 C 314.500 90.849,314.586 90.632,314.833 90.500 C 315.096 90.359,315.167 90.151,315.167 89.512 C 315.167 88.946,315.242 88.673,315.417 88.606 C 315.630 88.525,315.667 87.883,315.667 84.250 C 315.667 80.617,315.630 79.975,315.417 79.894 C 315.241 79.826,315.167 79.552,315.167 78.967 C 315.167 78.276,315.110 78.121,314.833 78.048 C 314.574 77.980,314.500 77.821,314.500 77.328 C 314.500 76.532,314.363 76.167,314.066 76.167 C 313.938 76.167,313.833 76.023,313.833 75.847 C 313.833 75.350,313.654 75.000,313.399 75.000 C 313.271 75.000,313.167 74.850,313.167 74.667 C 313.167 74.483,313.063 74.333,312.936 74.333 C 312.809 74.333,312.666 74.183,312.618 74.000 C 312.570 73.817,312.412 73.667,312.266 73.667 C 312.111 73.667,312.000 73.527,312.000 73.333 C 312.000 73.149,311.889 73.000,311.752 73.000 C 311.616 73.000,311.395 72.737,311.261 72.417 C 311.127 72.096,310.919 71.833,310.799 71.833 C 310.678 71.833,310.487 71.683,310.372 71.500 C 310.258 71.317,310.014 71.167,309.832 71.167 C 309.611 71.167,309.500 71.055,309.500 70.833 C 309.500 70.611,309.389 70.500,309.167 70.500 C 308.981 70.500,308.833 70.389,308.833 70.250 C 308.833 70.111,308.685 70.000,308.500 70.000 C 308.278 70.000,308.167 69.889,308.167 69.667 C 308.167 69.397,308.056 69.333,307.583 69.333 C 307.111 69.333,307.000 69.270,307.000 69.000 C 307.000 68.741,306.889 68.667,306.500 68.667 C 306.222 68.667,305.852 68.519,305.667 68.333 C 305.483 68.150,305.154 68.000,304.934 68.000 C 304.715 68.000,304.492 67.887,304.440 67.750 C 304.367 67.561,304.062 67.500,303.191 67.500 C 302.179 67.500,302.028 67.459,301.952 67.167 C 301.843 66.751,276.068 66.627,275.910 67.042 M317.607 67.458 C 317.473 68.266,317.472 116.962,317.606 117.460 L 317.707 117.837 324.478 117.794 L 331.250 117.750 331.293 108.125 L 331.336 98.500 337.168 98.500 L 343.000 98.500 343.000 107.903 C 343.000 113.075,343.046 117.425,343.101 117.570 C 343.191 117.804,343.927 117.833,349.684 117.833 L 356.167 117.833 356.167 92.333 L 356.167 66.833 349.688 66.833 L 343.208 66.833 343.104 67.354 C 343.047 67.641,343.000 71.691,343.000 76.354 L 343.000 84.833 337.167 84.833 L 331.333 84.833 331.331 76.208 C 331.330 71.465,331.284 67.415,331.228 67.208 L 331.128 66.833 324.419 66.833 L 317.710 66.833 317.607 67.458 M371.727 67.750 C 371.670 67.898,371.417 68.001,371.107 68.002 C 370.332 68.006,369.833 68.176,369.833 68.436 C 369.833 68.593,369.625 68.667,369.180 68.667 C 368.366 68.667,368.000 68.801,368.000 69.101 C 368.000 69.255,367.806 69.333,367.428 69.333 C 367.002 69.333,366.829 69.419,366.750 69.667 C 366.692 69.850,366.505 70.000,366.334 70.000 C 366.163 70.000,365.911 70.112,365.774 70.250 C 365.636 70.387,365.399 70.500,365.246 70.500 C 365.094 70.500,364.930 70.650,364.882 70.833 C 364.834 71.017,364.684 71.167,364.548 71.167 C 364.413 71.167,364.263 71.317,364.215 71.500 C 364.167 71.683,364.028 71.833,363.906 71.833 C 363.784 71.833,363.474 72.020,363.217 72.247 C 362.960 72.475,362.656 72.741,362.542 72.837 C 362.427 72.934,362.333 73.160,362.333 73.340 C 362.333 73.528,362.220 73.667,362.068 73.667 C 361.922 73.667,361.763 73.817,361.715 74.000 C 361.667 74.183,361.524 74.333,361.397 74.333 C 361.270 74.333,361.167 74.475,361.167 74.647 C 361.167 74.821,361.018 75.000,360.833 75.048 C 360.594 75.111,360.500 75.276,360.500 75.632 C 360.500 75.988,360.406 76.152,360.167 76.215 C 359.911 76.282,359.833 76.442,359.833 76.901 C 359.833 77.322,359.759 77.500,359.583 77.500 C 359.391 77.500,359.333 77.713,359.333 78.417 C 359.333 79.222,359.293 79.333,359.000 79.333 C 358.675 79.333,358.667 79.444,358.667 83.641 C 358.667 87.737,358.683 87.963,359.000 88.250 C 359.223 88.452,359.333 88.763,359.333 89.192 C 359.333 89.651,359.404 89.833,359.583 89.833 C 359.752 89.833,359.833 90.002,359.833 90.349 C 359.833 90.724,359.924 90.888,360.167 90.952 C 360.350 91.000,360.500 91.162,360.500 91.313 C 360.500 91.463,360.650 91.680,360.833 91.795 C 361.022 91.912,361.167 92.183,361.167 92.418 C 361.167 92.687,361.260 92.833,361.432 92.833 C 361.578 92.833,361.737 92.983,361.785 93.167 C 361.833 93.350,361.976 93.500,362.103 93.500 C 362.230 93.500,362.333 93.650,362.333 93.833 C 362.333 94.056,362.444 94.167,362.667 94.167 C 362.889 94.167,363.000 94.278,363.000 94.500 C 363.000 94.722,363.111 94.833,363.333 94.833 C 363.519 94.833,363.667 94.944,363.667 95.083 C 363.667 95.221,363.768 95.333,363.891 95.333 C 364.014 95.333,364.251 95.483,364.417 95.667 C 364.583 95.850,364.894 96.000,365.109 96.000 C 365.389 96.000,365.500 96.095,365.500 96.333 C 365.500 96.601,365.611 96.667,366.064 96.667 C 366.488 96.667,366.649 96.750,366.715 97.000 C 366.782 97.255,366.942 97.333,367.401 97.333 C 367.822 97.333,368.000 97.407,368.000 97.583 C 368.000 97.775,368.213 97.833,368.917 97.833 C 369.722 97.833,369.833 97.874,369.833 98.167 C 369.833 98.480,369.944 98.500,371.667 98.500 C 373.278 98.500,373.540 98.540,373.833 98.833 C 374.153 99.153,374.389 99.167,379.481 99.167 C 384.583 99.167,384.798 99.179,384.878 99.487 C 384.931 99.690,385.138 99.828,385.439 99.862 C 385.842 99.908,385.925 100.001,385.969 100.458 C 386.008 100.865,386.102 101.000,386.344 101.000 C 386.762 101.000,386.757 101.274,386.333 101.539 C 386.115 101.675,386.000 101.927,386.000 102.271 C 386.000 102.654,385.911 102.818,385.667 102.882 C 385.483 102.930,385.333 103.088,385.333 103.234 C 385.333 103.380,385.221 103.500,385.083 103.500 C 384.944 103.500,384.833 103.648,384.833 103.833 C 384.833 104.110,384.722 104.167,384.180 104.167 C 383.366 104.167,383.000 104.301,383.000 104.601 C 383.000 105.032,376.732 104.933,376.618 104.500 C 376.546 104.222,376.391 104.167,375.682 104.167 C 375.033 104.167,374.833 104.107,374.833 103.913 C 374.833 103.773,374.646 103.587,374.417 103.500 C 374.188 103.413,374.000 103.265,374.000 103.171 C 374.000 103.077,373.887 103.000,373.750 103.000 C 373.613 103.000,373.500 102.885,373.500 102.745 C 373.500 102.604,373.387 102.446,373.250 102.394 C 373.113 102.341,373.000 102.186,373.000 102.050 C 373.000 101.914,372.854 101.764,372.676 101.717 C 372.443 101.656,372.337 101.461,372.301 101.025 L 372.250 100.417 365.500 100.417 L 358.750 100.417 358.703 102.542 C 358.659 104.581,358.670 104.667,358.995 104.667 C 359.294 104.667,359.333 104.773,359.333 105.583 C 359.333 106.287,359.391 106.500,359.583 106.500 C 359.759 106.500,359.833 106.678,359.833 107.099 C 359.833 107.558,359.911 107.718,360.167 107.785 C 360.419 107.851,360.500 108.012,360.500 108.452 C 360.500 108.891,360.581 109.052,360.833 109.118 C 361.067 109.180,361.167 109.346,361.167 109.675 C 361.167 109.998,361.271 110.177,361.500 110.250 C 361.683 110.308,361.833 110.501,361.833 110.678 C 361.833 110.855,361.937 111.000,362.064 111.000 C 362.191 111.000,362.334 111.150,362.382 111.333 C 362.430 111.517,362.588 111.667,362.734 111.667 C 362.880 111.667,363.000 111.779,363.000 111.917 C 363.000 112.056,363.148 112.167,363.333 112.167 C 363.556 112.167,363.667 112.278,363.667 112.500 C 363.667 112.685,363.778 112.833,363.917 112.833 C 364.054 112.833,364.167 112.948,364.167 113.089 C 364.167 113.229,364.298 113.392,364.458 113.451 C 364.619 113.510,364.810 113.658,364.883 113.779 C 364.957 113.901,365.275 114.000,365.592 114.000 C 366.056 114.000,366.167 114.064,366.167 114.333 C 366.167 114.556,366.278 114.667,366.500 114.667 C 366.683 114.667,366.833 114.773,366.833 114.903 C 366.833 115.035,367.073 115.193,367.373 115.259 C 367.669 115.324,367.993 115.487,368.091 115.622 C 368.190 115.757,368.622 115.907,369.052 115.955 C 369.560 116.012,369.833 116.123,369.833 116.272 C 369.833 116.437,370.083 116.500,370.739 116.500 C 371.498 116.500,371.661 116.554,371.750 116.833 C 371.845 117.132,372.002 117.167,373.261 117.167 C 374.454 117.167,374.718 117.218,375.007 117.507 C 375.494 117.994,384.882 117.949,385.240 117.458 C 385.409 117.228,385.702 117.167,386.643 117.167 C 387.722 117.167,387.833 117.136,387.833 116.833 C 387.833 116.540,387.944 116.500,388.750 116.500 C 389.454 116.500,389.667 116.442,389.667 116.250 C 389.667 116.074,389.844 116.000,390.266 116.000 C 390.724 116.000,390.885 115.922,390.952 115.667 C 391.017 115.416,391.179 115.333,391.603 115.333 C 392.056 115.333,392.167 115.268,392.167 115.000 C 392.167 114.729,392.278 114.667,392.766 114.667 C 393.224 114.667,393.385 114.589,393.452 114.333 C 393.500 114.149,393.679 114.000,393.853 114.000 C 394.025 114.000,394.167 113.888,394.167 113.750 C 394.167 113.612,394.279 113.500,394.417 113.500 C 394.556 113.500,394.667 113.352,394.667 113.167 C 394.667 112.955,394.778 112.833,394.971 112.833 C 395.305 112.833,396.000 112.179,396.000 111.864 C 396.000 111.756,396.113 111.667,396.250 111.667 C 396.389 111.667,396.500 111.519,396.500 111.333 C 396.500 111.111,396.611 111.000,396.833 111.000 C 397.056 111.000,397.167 110.889,397.167 110.667 C 397.167 110.444,397.278 110.333,397.500 110.333 C 397.768 110.333,397.833 110.222,397.833 109.769 C 397.833 109.346,397.916 109.184,398.167 109.118 C 398.422 109.052,398.500 108.891,398.500 108.432 C 398.500 108.011,398.574 107.833,398.750 107.833 C 398.924 107.833,399.000 107.659,399.000 107.261 C 399.000 106.836,399.085 106.662,399.333 106.583 C 399.624 106.491,399.667 106.331,399.667 105.322 C 399.667 104.663,399.738 104.167,399.833 104.167 C 399.938 104.167,400.000 103.111,400.000 101.333 C 400.000 99.556,399.938 98.500,399.833 98.500 C 399.742 98.500,399.667 98.094,399.667 97.597 C 399.667 96.541,399.553 96.167,399.232 96.167 C 399.072 96.167,399.000 95.959,399.000 95.500 C 399.000 95.019,398.931 94.833,398.750 94.833 C 398.594 94.833,398.500 94.676,398.500 94.415 C 398.500 94.185,398.350 93.868,398.167 93.711 C 397.983 93.554,397.833 93.330,397.833 93.213 C 397.833 93.096,397.683 93.000,397.500 93.000 C 397.231 93.000,397.167 92.889,397.167 92.428 C 397.167 92.002,397.081 91.829,396.833 91.750 C 396.650 91.692,396.500 91.537,396.500 91.405 C 396.500 91.274,396.396 91.167,396.269 91.167 C 396.143 91.167,396.000 91.017,395.952 90.833 C 395.904 90.650,395.754 90.500,395.618 90.500 C 395.483 90.500,395.333 90.350,395.285 90.167 C 395.237 89.983,395.075 89.833,394.925 89.833 C 394.775 89.833,394.492 89.683,394.295 89.500 C 394.098 89.317,393.839 89.167,393.719 89.167 C 393.598 89.167,393.500 89.054,393.500 88.917 C 393.500 88.778,393.352 88.667,393.167 88.667 C 392.983 88.667,392.683 88.517,392.500 88.333 C 392.317 88.150,392.054 88.000,391.917 88.000 C 391.779 88.000,391.517 87.850,391.333 87.667 C 391.114 87.448,390.778 87.333,390.353 87.333 C 389.846 87.333,389.687 87.261,389.618 87.000 C 389.542 86.706,389.391 86.667,388.349 86.667 C 387.409 86.667,387.167 86.615,387.167 86.417 C 387.167 86.199,386.373 86.167,381.019 86.167 C 375.012 86.167,374.870 86.159,374.785 85.833 C 374.712 85.555,374.558 85.500,373.849 85.500 C 373.183 85.500,373.000 85.443,373.000 85.234 C 373.000 85.088,372.850 84.930,372.667 84.882 C 372.371 84.804,372.333 84.654,372.333 83.564 C 372.333 82.444,372.363 82.333,372.667 82.333 C 372.889 82.333,373.000 82.222,373.000 82.000 C 373.000 81.815,373.111 81.667,373.250 81.667 C 373.387 81.667,373.500 81.554,373.500 81.417 C 373.500 81.261,373.657 81.167,373.917 81.167 C 374.146 81.167,374.483 81.017,374.667 80.833 C 374.981 80.519,375.222 80.500,378.877 80.500 C 382.573 80.500,382.763 80.516,382.961 80.833 C 383.094 81.046,383.350 81.167,383.668 81.167 C 384.000 81.167,384.167 81.250,384.167 81.417 C 384.167 81.556,384.315 81.667,384.500 81.667 C 384.722 81.667,384.833 81.778,384.833 82.000 C 384.833 82.185,384.944 82.333,385.083 82.333 C 385.221 82.333,385.333 82.453,385.333 82.599 C 385.333 82.745,385.483 82.904,385.667 82.952 C 385.917 83.017,386.000 83.179,386.000 83.603 C 386.000 84.118,386.043 84.167,386.500 84.167 C 386.775 84.167,387.000 84.230,387.000 84.307 C 387.000 84.753,388.029 84.833,393.758 84.833 L 399.667 84.833 399.667 82.373 C 399.667 80.094,399.642 79.898,399.333 79.705 C 399.080 79.547,399.000 79.317,399.000 78.749 C 399.000 78.194,398.935 78.000,398.750 78.000 C 398.575 78.000,398.500 77.824,398.500 77.417 C 398.500 76.944,398.437 76.833,398.167 76.833 C 397.895 76.833,397.833 76.722,397.833 76.234 C 397.833 75.776,397.755 75.615,397.500 75.548 C 397.316 75.500,397.167 75.321,397.167 75.149 C 397.167 74.977,397.017 74.742,396.833 74.628 C 396.650 74.513,396.500 74.250,396.500 74.043 C 396.500 73.820,396.398 73.667,396.250 73.667 C 396.113 73.667,396.000 73.547,396.000 73.401 C 396.000 73.255,395.850 73.096,395.667 73.048 C 395.483 73.000,395.333 72.857,395.333 72.731 C 395.333 72.604,395.183 72.500,395.000 72.500 C 394.778 72.500,394.667 72.389,394.667 72.167 C 394.667 71.944,394.556 71.833,394.333 71.833 C 394.150 71.833,394.000 71.729,394.000 71.601 C 394.000 71.346,393.650 71.167,393.153 71.167 C 392.977 71.167,392.833 71.052,392.833 70.911 C 392.833 70.771,392.702 70.608,392.542 70.549 C 392.381 70.490,392.190 70.342,392.117 70.221 C 392.043 70.099,391.771 70.000,391.511 70.000 C 391.179 70.000,391.013 69.901,390.952 69.667 C 390.888 69.424,390.724 69.333,390.349 69.333 C 390.056 69.333,389.690 69.190,389.500 69.000 C 389.278 68.778,388.944 68.667,388.500 68.667 C 388.045 68.667,387.833 68.594,387.833 68.438 C 387.833 68.208,387.146 68.000,386.391 68.000 C 386.170 68.000,385.946 67.887,385.894 67.750 C 385.810 67.533,384.868 67.500,378.810 67.500 C 372.753 67.500,371.810 67.533,371.727 67.750 M295.046 80.125 C 295.314 80.368,295.769 80.426,297.767 80.474 C 299.996 80.527,300.167 80.554,300.167 80.849 C 300.167 81.056,300.283 81.167,300.500 81.167 C 300.685 81.167,300.833 81.278,300.833 81.417 C 300.833 81.554,300.946 81.667,301.083 81.667 C 301.221 81.667,301.333 81.786,301.333 81.932 C 301.333 82.078,301.483 82.237,301.667 82.285 C 302.054 82.386,302.199 86.167,301.815 86.167 C 301.559 86.167,300.840 86.871,300.836 87.125 C 300.835 87.240,300.683 87.333,300.500 87.333 C 300.282 87.333,300.167 87.444,300.167 87.654 C 300.167 87.951,300.006 87.978,297.903 88.029 C 295.979 88.075,295.607 88.127,295.426 88.375 C 295.238 88.633,294.885 88.667,292.357 88.667 L 289.500 88.667 289.500 84.250 L 289.500 79.833 292.112 79.833 C 294.366 79.833,294.768 79.873,295.046 80.125 M214.382 80.833 C 214.441 81.060,214.609 81.167,214.906 81.167 C 215.147 81.167,215.387 81.279,215.440 81.417 C 215.492 81.554,215.678 81.667,215.851 81.667 C 216.090 81.667,216.167 81.787,216.167 82.165 C 216.167 82.483,216.287 82.739,216.500 82.872 C 216.794 83.056,216.833 83.261,216.833 84.623 C 216.833 86.056,216.809 86.167,216.500 86.167 C 216.278 86.167,216.167 86.278,216.167 86.500 C 216.167 86.685,216.056 86.833,215.917 86.833 C 215.779 86.833,215.667 86.946,215.667 87.083 C 215.667 87.222,215.519 87.333,215.333 87.333 C 215.111 87.333,215.000 87.444,215.000 87.667 C 215.000 87.938,214.889 88.000,214.401 88.000 C 213.942 88.000,213.782 88.078,213.715 88.333 C 213.630 88.657,213.488 88.667,208.981 88.667 L 204.333 88.667 204.333 84.583 L 204.333 80.500 209.314 80.500 C 214.154 80.500,214.297 80.509,214.382 80.833 M253.500 84.808 C 253.500 85.237,253.610 85.548,253.833 85.750 C 254.114 86.004,254.167 86.263,254.167 87.388 C 254.167 88.293,254.242 88.809,254.399 88.987 C 254.535 89.141,254.658 89.749,254.696 90.458 L 254.761 91.667 253.214 91.667 C 251.590 91.667,251.223 91.444,251.958 90.907 C 252.195 90.734,252.261 90.378,252.307 89.014 C 252.352 87.708,252.417 87.333,252.599 87.333 C 252.784 87.333,252.833 86.999,252.833 85.750 C 252.833 84.278,252.857 84.167,253.167 84.167 C 253.442 84.167,253.500 84.278,253.500 84.808 " stroke="none" fill="#fcfcfc" fill-rule="evenodd"></path><path id="path1" d="M52.500 10.583 C 52.500 10.787,52.222 10.833,51.000 10.833 C 49.611 10.833,49.500 10.858,49.500 11.167 C 49.500 11.477,49.389 11.500,47.917 11.500 C 46.444 11.500,46.333 11.523,46.333 11.833 C 46.333 12.126,46.222 12.167,45.417 12.167 C 44.713 12.167,44.500 12.225,44.500 12.417 C 44.500 12.615,44.258 12.667,43.318 12.667 C 42.276 12.667,42.125 12.706,42.048 13.000 C 41.983 13.249,41.821 13.333,41.408 13.333 C 41.002 13.333,40.828 13.422,40.750 13.667 C 40.661 13.946,40.498 14.000,39.739 14.000 C 38.944 14.000,38.833 14.041,38.833 14.333 C 38.833 14.626,38.722 14.667,37.917 14.667 C 37.213 14.667,37.000 14.725,37.000 14.917 C 37.000 15.091,36.824 15.167,36.417 15.167 C 35.944 15.167,35.833 15.230,35.833 15.500 C 35.833 15.722,35.722 15.833,35.500 15.833 C 35.278 15.833,35.167 15.944,35.167 16.167 C 35.167 16.444,35.056 16.500,34.500 16.500 C 33.944 16.500,33.833 16.556,33.833 16.833 C 33.833 17.103,33.722 17.167,33.250 17.167 C 32.843 17.167,32.667 17.242,32.667 17.417 C 32.667 17.590,32.492 17.667,32.095 17.667 C 31.669 17.667,31.495 17.752,31.417 18.000 C 31.358 18.183,31.203 18.333,31.072 18.333 C 30.941 18.333,30.833 18.483,30.833 18.667 C 30.833 18.944,30.722 19.000,30.167 19.000 C 29.611 19.000,29.500 19.056,29.500 19.333 C 29.500 19.519,29.389 19.667,29.250 19.667 C 29.113 19.667,29.000 19.779,29.000 19.917 C 29.000 20.056,28.852 20.167,28.667 20.167 C 28.444 20.167,28.333 20.278,28.333 20.500 C 28.333 20.778,28.222 20.833,27.667 20.833 C 27.111 20.833,27.000 20.889,27.000 21.167 C 27.000 21.352,26.889 21.500,26.750 21.500 C 26.613 21.500,26.500 21.613,26.500 21.750 C 26.500 21.889,26.352 22.000,26.167 22.000 C 25.944 22.000,25.833 22.111,25.833 22.333 C 25.833 22.556,25.722 22.667,25.500 22.667 C 25.278 22.667,25.167 22.778,25.167 23.000 C 25.167 23.222,25.056 23.333,24.833 23.333 C 24.611 23.333,24.500 23.444,24.500 23.667 C 24.500 23.852,24.389 24.000,24.250 24.000 C 24.113 24.000,24.000 24.113,24.000 24.250 C 24.000 24.431,23.815 24.500,23.333 24.500 L 22.667 24.500 22.667 25.167 C 22.667 25.648,22.597 25.833,22.417 25.833 C 22.278 25.833,22.167 25.981,22.167 26.167 C 22.167 26.389,22.056 26.500,21.833 26.500 C 21.648 26.500,21.500 26.611,21.500 26.750 C 21.500 26.889,21.352 27.000,21.167 27.000 C 20.944 27.000,20.833 27.111,20.833 27.333 C 20.833 27.556,20.722 27.667,20.500 27.667 C 20.278 27.667,20.167 27.778,20.167 28.000 C 20.167 28.185,20.056 28.333,19.917 28.333 C 19.779 28.333,19.667 28.446,19.667 28.583 C 19.667 28.722,19.519 28.833,19.333 28.833 C 19.056 28.833,19.000 28.944,19.000 29.500 C 19.000 30.056,18.944 30.167,18.667 30.167 C 18.444 30.167,18.333 30.278,18.333 30.500 C 18.333 30.722,18.222 30.833,18.000 30.833 C 17.815 30.833,17.667 30.944,17.667 31.083 C 17.667 31.221,17.554 31.333,17.417 31.333 C 17.236 31.333,17.167 31.519,17.167 32.000 C 17.167 32.556,17.111 32.667,16.833 32.667 C 16.563 32.667,16.500 32.778,16.500 33.250 C 16.500 33.722,16.437 33.833,16.167 33.833 C 15.944 33.833,15.833 33.944,15.833 34.167 C 15.833 34.389,15.722 34.500,15.500 34.500 C 15.232 34.500,15.167 34.611,15.167 35.066 C 15.167 35.414,15.071 35.668,14.917 35.727 C 14.760 35.787,14.667 36.042,14.667 36.411 C 14.667 36.889,14.604 37.000,14.333 37.000 C 14.063 37.000,14.000 37.111,14.000 37.583 C 14.000 38.006,13.927 38.167,13.734 38.167 C 13.588 38.167,13.430 38.317,13.382 38.500 C 13.334 38.683,13.191 38.833,13.064 38.833 C 12.896 38.833,12.833 39.081,12.833 39.750 C 12.833 40.556,12.793 40.667,12.500 40.667 C 12.204 40.667,12.167 40.778,12.167 41.667 C 12.167 42.556,12.130 42.667,11.833 42.667 C 11.563 42.667,11.500 42.778,11.500 43.250 C 11.500 43.722,11.437 43.833,11.167 43.833 C 10.863 43.833,10.833 43.944,10.833 45.083 C 10.833 46.083,10.783 46.333,10.583 46.333 C 10.391 46.333,10.333 46.546,10.333 47.250 C 10.333 48.056,10.293 48.167,10.000 48.167 C 9.690 48.167,9.667 48.278,9.667 49.750 C 9.667 51.222,9.643 51.333,9.333 51.333 C 9.020 51.333,9.000 51.444,9.000 53.167 C 9.000 54.889,8.980 55.000,8.667 55.000 C 8.340 55.000,8.333 55.111,8.333 60.583 C 8.333 66.056,8.340 66.167,8.667 66.167 C 8.981 66.167,9.000 66.278,9.000 68.083 C 9.000 69.889,9.019 70.000,9.333 70.000 C 9.642 70.000,9.667 70.111,9.667 71.500 C 9.667 72.889,9.691 73.000,10.000 73.000 C 10.293 73.000,10.333 73.111,10.333 73.917 C 10.333 74.620,10.391 74.833,10.583 74.833 C 10.783 74.833,10.833 75.083,10.833 76.083 C 10.833 77.222,10.863 77.333,11.167 77.333 C 11.444 77.333,11.500 77.444,11.500 78.000 C 11.500 78.556,11.556 78.667,11.833 78.667 C 12.126 78.667,12.167 78.778,12.167 79.583 C 12.167 80.389,12.207 80.500,12.500 80.500 C 12.793 80.500,12.833 80.611,12.833 81.417 C 12.833 82.120,12.891 82.333,13.083 82.333 C 13.222 82.333,13.333 82.481,13.333 82.667 C 13.333 82.889,13.444 83.000,13.667 83.000 C 13.937 83.000,14.000 83.111,14.000 83.583 C 14.000 84.056,14.063 84.167,14.333 84.167 C 14.611 84.167,14.667 84.278,14.667 84.833 C 14.667 85.315,14.736 85.500,14.917 85.500 C 15.091 85.500,15.167 85.676,15.167 86.083 C 15.167 86.556,15.230 86.667,15.500 86.667 C 15.722 86.667,15.833 86.778,15.833 87.000 C 15.833 87.222,15.944 87.333,16.167 87.333 C 16.444 87.333,16.500 87.444,16.500 88.000 C 16.500 88.556,16.556 88.667,16.833 88.667 C 17.103 88.667,17.167 88.778,17.167 89.250 C 17.167 89.657,17.242 89.833,17.417 89.833 C 17.554 89.833,17.667 89.953,17.667 90.099 C 17.667 90.245,17.817 90.404,18.000 90.452 C 18.183 90.500,18.333 90.643,18.333 90.769 C 18.333 90.896,18.483 91.000,18.667 91.000 C 18.944 91.000,19.000 91.111,19.000 91.667 C 19.000 92.222,19.056 92.333,19.333 92.333 C 19.556 92.333,19.667 92.444,19.667 92.667 C 19.667 92.852,19.778 93.000,19.917 93.000 C 20.054 93.000,20.167 93.112,20.167 93.250 C 20.167 93.389,20.315 93.500,20.500 93.500 C 20.722 93.500,20.833 93.611,20.833 93.833 C 20.833 94.056,20.944 94.167,21.167 94.167 C 21.389 94.167,21.500 94.278,21.500 94.500 C 21.500 94.722,21.611 94.833,21.833 94.833 C 22.056 94.833,22.167 94.944,22.167 95.167 C 22.167 95.352,22.278 95.500,22.417 95.500 C 22.591 95.500,22.667 95.676,22.667 96.083 C 22.667 96.653,22.683 96.667,23.333 96.667 C 23.889 96.667,24.000 96.722,24.000 97.000 C 24.000 97.185,24.111 97.333,24.250 97.333 C 24.387 97.333,24.500 97.446,24.500 97.583 C 24.500 97.722,24.648 97.833,24.833 97.833 C 25.056 97.833,25.167 97.944,25.167 98.167 C 25.167 98.389,25.278 98.500,25.500 98.500 C 25.722 98.500,25.833 98.611,25.833 98.833 C 25.833 99.056,25.944 99.167,26.167 99.167 C 26.389 99.167,26.500 99.278,26.500 99.500 C 26.500 99.685,26.611 99.833,26.750 99.833 C 26.887 99.833,27.000 99.946,27.000 100.083 C 27.000 100.264,27.185 100.333,27.667 100.333 C 28.222 100.333,28.333 100.389,28.333 100.667 C 28.333 100.889,28.444 101.000,28.667 101.000 C 28.889 101.000,29.000 101.111,29.000 101.333 C 29.000 101.517,29.104 101.667,29.231 101.667 C 29.357 101.667,29.500 101.817,29.548 102.000 C 29.615 102.255,29.776 102.333,30.234 102.333 C 30.656 102.333,30.833 102.407,30.833 102.583 C 30.833 102.721,30.941 102.833,31.072 102.833 C 31.203 102.833,31.358 102.983,31.417 103.167 C 31.495 103.415,31.669 103.500,32.095 103.500 C 32.556 103.500,32.667 103.565,32.667 103.833 C 32.667 104.101,32.778 104.167,33.231 104.167 C 33.654 104.167,33.816 104.250,33.882 104.500 C 33.948 104.755,34.109 104.833,34.568 104.833 C 34.989 104.833,35.167 104.907,35.167 105.083 C 35.167 105.222,35.315 105.333,35.500 105.333 C 35.722 105.333,35.833 105.444,35.833 105.667 C 35.833 105.937,35.944 106.000,36.417 106.000 C 36.889 106.000,37.000 106.063,37.000 106.333 C 37.000 106.626,37.111 106.667,37.917 106.667 C 38.620 106.667,38.833 106.725,38.833 106.917 C 38.833 107.108,39.045 107.167,39.739 107.167 C 40.498 107.167,40.661 107.221,40.750 107.500 C 40.829 107.748,41.002 107.833,41.428 107.833 C 41.889 107.833,42.000 107.898,42.000 108.167 C 42.000 108.470,42.111 108.500,43.250 108.500 C 44.389 108.500,44.500 108.530,44.500 108.833 C 44.500 109.126,44.611 109.167,45.417 109.167 C 46.120 109.167,46.333 109.225,46.333 109.417 C 46.333 109.621,46.620 109.667,47.917 109.667 C 49.389 109.667,49.500 109.690,49.500 110.000 C 49.500 110.309,49.611 110.333,51.000 110.333 C 52.389 110.333,52.500 110.358,52.500 110.667 C 52.500 110.999,52.611 111.000,88.333 111.000 L 124.167 111.000 124.167 105.417 L 124.167 99.833 107.667 99.833 C 91.278 99.833,91.167 99.831,91.167 99.500 C 91.167 99.278,91.278 99.167,91.500 99.167 C 91.722 99.167,91.833 99.056,91.833 98.833 C 91.833 98.648,91.944 98.500,92.083 98.500 C 92.222 98.500,92.333 98.352,92.333 98.167 C 92.333 97.889,92.444 97.833,93.000 97.833 C 93.481 97.833,93.667 97.764,93.667 97.583 C 93.667 97.446,93.779 97.333,93.917 97.333 C 94.056 97.333,94.167 97.185,94.167 97.000 C 94.167 96.778,94.278 96.667,94.500 96.667 C 94.722 96.667,94.833 96.556,94.833 96.333 C 94.833 96.111,94.944 96.000,95.167 96.000 C 95.350 96.000,95.500 95.896,95.500 95.769 C 95.500 95.643,95.650 95.500,95.833 95.452 C 96.089 95.385,96.167 95.224,96.167 94.766 C 96.167 94.344,96.241 94.167,96.417 94.167 C 96.556 94.167,96.667 94.019,96.667 93.833 C 96.667 93.611,96.778 93.500,97.000 93.500 C 97.185 93.500,97.333 93.389,97.333 93.250 C 97.333 93.111,97.481 93.000,97.667 93.000 C 97.889 93.000,98.000 92.889,98.000 92.667 C 98.000 92.444,98.111 92.333,98.333 92.333 C 98.611 92.333,98.667 92.222,98.667 91.667 C 98.667 91.185,98.736 91.000,98.917 91.000 C 99.054 91.000,99.167 90.888,99.167 90.750 C 99.167 90.611,99.315 90.500,99.500 90.500 C 99.722 90.500,99.833 90.389,99.833 90.167 C 99.833 89.944,99.944 89.833,100.167 89.833 C 100.434 89.833,100.500 89.722,100.500 89.269 C 100.500 88.846,100.583 88.684,100.833 88.618 C 101.017 88.570,101.167 88.412,101.167 88.266 C 101.167 88.120,101.279 88.000,101.417 88.000 C 101.597 88.000,101.667 87.815,101.667 87.333 C 101.667 86.778,101.722 86.667,102.000 86.667 C 102.270 86.667,102.333 86.556,102.333 86.083 C 102.333 85.611,102.397 85.500,102.667 85.500 C 102.889 85.500,103.000 85.389,103.000 85.167 C 103.000 84.981,103.111 84.833,103.250 84.833 C 103.425 84.833,103.500 84.657,103.500 84.250 C 103.500 83.778,103.563 83.667,103.833 83.667 C 104.111 83.667,104.167 83.556,104.167 83.000 C 104.167 82.444,104.222 82.333,104.500 82.333 C 104.793 82.333,104.833 82.222,104.833 81.417 C 104.833 80.611,104.874 80.500,105.167 80.500 C 105.437 80.500,105.500 80.389,105.500 79.917 C 105.500 79.509,105.575 79.333,105.750 79.333 C 105.944 79.333,106.000 79.111,106.000 78.333 C 106.000 77.444,106.037 77.333,106.333 77.333 C 106.626 77.333,106.667 77.222,106.667 76.417 C 106.667 75.611,106.707 75.500,107.000 75.500 C 107.304 75.500,107.333 75.389,107.333 74.250 C 107.333 73.111,107.363 73.000,107.667 73.000 C 107.970 73.000,108.000 72.889,108.000 71.750 C 108.000 70.750,108.050 70.500,108.250 70.500 C 108.457 70.500,108.500 70.185,108.500 68.667 C 108.500 66.944,108.520 66.833,108.833 66.833 C 109.161 66.833,109.167 66.722,109.167 60.583 C 109.167 54.444,109.161 54.333,108.833 54.333 C 108.520 54.333,108.500 54.222,108.500 52.500 C 108.500 50.981,108.457 50.667,108.250 50.667 C 108.050 50.667,108.000 50.417,108.000 49.417 C 108.000 48.278,107.970 48.167,107.667 48.167 C 107.363 48.167,107.333 48.056,107.333 46.917 C 107.333 45.778,107.304 45.667,107.000 45.667 C 106.707 45.667,106.667 45.556,106.667 44.750 C 106.667 43.944,106.626 43.833,106.333 43.833 C 106.040 43.833,106.000 43.722,106.000 42.917 C 106.000 42.213,105.942 42.000,105.750 42.000 C 105.569 42.000,105.500 41.815,105.500 41.333 C 105.500 40.778,105.444 40.667,105.167 40.667 C 104.874 40.667,104.833 40.556,104.833 39.750 C 104.833 38.944,104.793 38.833,104.500 38.833 C 104.230 38.833,104.167 38.722,104.167 38.250 C 104.167 37.778,104.103 37.667,103.833 37.667 C 103.556 37.667,103.500 37.556,103.500 37.000 C 103.500 36.519,103.431 36.333,103.250 36.333 C 103.112 36.333,103.000 36.214,103.000 36.068 C 103.000 35.922,102.850 35.763,102.667 35.715 C 102.416 35.649,102.333 35.488,102.333 35.064 C 102.333 34.611,102.268 34.500,102.000 34.500 C 101.730 34.500,101.667 34.389,101.667 33.917 C 101.667 33.509,101.591 33.333,101.417 33.333 C 101.278 33.333,101.167 33.185,101.167 33.000 C 101.167 32.778,101.056 32.667,100.833 32.667 C 100.556 32.667,100.500 32.556,100.500 32.000 C 100.500 31.444,100.444 31.333,100.167 31.333 C 99.981 31.333,99.833 31.222,99.833 31.083 C 99.833 30.944,99.685 30.833,99.500 30.833 C 99.278 30.833,99.167 30.722,99.167 30.500 C 99.167 30.315,99.056 30.167,98.917 30.167 C 98.741 30.167,98.667 29.989,98.667 29.568 C 98.667 29.109,98.589 28.948,98.333 28.882 C 98.150 28.834,98.000 28.691,98.000 28.564 C 98.000 28.437,97.850 28.333,97.667 28.333 C 97.444 28.333,97.333 28.222,97.333 28.000 C 97.333 27.778,97.222 27.667,97.000 27.667 C 96.778 27.667,96.667 27.556,96.667 27.333 C 96.667 27.148,96.556 27.000,96.417 27.000 C 96.242 27.000,96.167 26.824,96.167 26.417 C 96.167 25.944,96.103 25.833,95.833 25.833 C 95.611 25.833,95.500 25.722,95.500 25.500 C 95.500 25.278,95.389 25.167,95.167 25.167 C 94.944 25.167,94.833 25.056,94.833 24.833 C 94.833 24.611,94.722 24.500,94.500 24.500 C 94.315 24.500,94.167 24.389,94.167 24.250 C 94.167 24.113,94.054 24.000,93.917 24.000 C 93.778 24.000,93.667 23.852,93.667 23.667 C 93.667 23.389,93.556 23.333,93.000 23.333 C 92.444 23.333,92.333 23.278,92.333 23.000 C 92.333 22.817,92.230 22.667,92.103 22.667 C 91.976 22.667,91.833 22.517,91.785 22.333 C 91.737 22.150,91.578 22.000,91.432 22.000 C 91.286 22.000,91.167 21.887,91.167 21.750 C 91.167 21.611,91.019 21.500,90.833 21.500 C 90.611 21.500,90.500 21.389,90.500 21.167 C 90.500 20.897,90.389 20.833,89.917 20.833 C 89.444 20.833,89.333 20.770,89.333 20.500 C 89.333 20.278,89.222 20.167,89.000 20.167 C 88.815 20.167,88.667 20.056,88.667 19.917 C 88.667 19.778,88.519 19.667,88.333 19.667 C 88.111 19.667,88.000 19.556,88.000 19.333 C 88.000 19.063,87.889 19.000,87.417 19.000 C 86.944 19.000,86.833 18.937,86.833 18.667 C 86.833 18.444,86.722 18.333,86.500 18.333 C 86.278 18.333,86.167 18.222,86.167 18.000 C 86.167 17.722,86.056 17.667,85.500 17.667 C 85.019 17.667,84.833 17.597,84.833 17.417 C 84.833 17.242,84.657 17.167,84.250 17.167 C 83.778 17.167,83.667 17.103,83.667 16.833 C 83.667 16.611,83.556 16.500,83.333 16.500 C 83.111 16.500,83.000 16.389,83.000 16.167 C 83.000 15.897,82.889 15.833,82.417 15.833 C 81.944 15.833,81.833 15.770,81.833 15.500 C 81.833 15.222,81.722 15.167,81.167 15.167 C 80.685 15.167,80.500 15.097,80.500 14.917 C 80.500 14.725,80.287 14.667,79.583 14.667 C 78.778 14.667,78.667 14.626,78.667 14.333 C 78.667 14.063,78.556 14.000,78.083 14.000 C 77.611 14.000,77.500 13.937,77.500 13.667 C 77.500 13.370,77.389 13.333,76.500 13.333 C 75.611 13.333,75.500 13.296,75.500 13.000 C 75.500 12.707,75.389 12.667,74.583 12.667 C 73.880 12.667,73.667 12.609,73.667 12.417 C 73.667 12.217,73.417 12.167,72.417 12.167 C 71.278 12.167,71.167 12.137,71.167 11.833 C 71.167 11.525,71.056 11.500,69.667 11.500 C 68.278 11.500,68.167 11.475,68.167 11.167 C 68.167 10.857,68.056 10.833,66.583 10.833 C 65.287 10.833,65.000 10.788,65.000 10.583 C 65.000 10.366,64.194 10.333,58.750 10.333 C 53.306 10.333,52.500 10.366,52.500 10.583 M62.500 24.833 C 62.500 25.111,62.611 25.167,63.167 25.167 C 63.722 25.167,63.833 25.222,63.833 25.500 C 63.833 25.768,63.944 25.833,64.397 25.833 C 64.821 25.833,64.983 25.916,65.048 26.167 C 65.096 26.350,65.255 26.500,65.401 26.500 C 65.547 26.500,65.667 26.613,65.667 26.750 C 65.667 26.925,65.843 27.000,66.250 27.000 C 66.819 27.000,66.833 27.016,66.833 27.667 C 66.833 28.222,66.889 28.333,67.167 28.333 C 67.352 28.333,67.500 28.444,67.500 28.583 C 67.500 28.722,67.648 28.833,67.833 28.833 C 68.056 28.833,68.167 28.944,68.167 29.167 C 68.167 29.352,68.278 29.500,68.417 29.500 C 68.554 29.500,68.667 29.620,68.667 29.766 C 68.667 29.912,68.817 30.070,69.000 30.118 C 69.250 30.184,69.333 30.346,69.333 30.769 C 69.333 31.222,69.399 31.333,69.667 31.333 C 69.963 31.333,70.000 31.444,70.000 32.333 C 70.000 33.222,70.037 33.333,70.333 33.333 C 70.653 33.333,70.667 33.444,70.667 36.083 C 70.667 38.722,70.653 38.833,70.333 38.833 C 70.040 38.833,70.000 38.944,70.000 39.750 C 70.000 40.556,69.960 40.667,69.667 40.667 C 69.389 40.667,69.333 40.778,69.333 41.333 C 69.333 41.889,69.278 42.000,69.000 42.000 C 68.730 42.000,68.667 42.111,68.667 42.583 C 68.667 42.991,68.591 43.167,68.417 43.167 C 68.278 43.167,68.167 43.315,68.167 43.500 C 68.167 43.722,68.056 43.833,67.833 43.833 C 67.611 43.833,67.500 43.944,67.500 44.167 C 67.500 44.389,67.389 44.500,67.167 44.500 C 66.981 44.500,66.833 44.611,66.833 44.750 C 66.833 44.887,66.721 45.000,66.583 45.000 C 66.444 45.000,66.333 45.148,66.333 45.333 C 66.333 45.611,66.222 45.667,65.667 45.667 C 65.111 45.667,65.000 45.722,65.000 46.000 C 65.000 46.222,64.889 46.333,64.667 46.333 C 64.444 46.333,64.333 46.444,64.333 46.667 C 64.333 46.960,64.222 47.000,63.417 47.000 C 62.713 47.000,62.500 47.058,62.500 47.250 C 62.500 47.442,62.287 47.500,61.583 47.500 C 60.778 47.500,60.667 47.540,60.667 47.833 C 60.667 48.143,60.556 48.167,59.083 48.167 C 57.611 48.167,57.500 48.143,57.500 47.833 C 57.500 47.530,57.389 47.500,56.250 47.500 C 55.250 47.500,55.000 47.450,55.000 47.250 C 55.000 47.058,54.787 47.000,54.083 47.000 C 53.278 47.000,53.167 46.960,53.167 46.667 C 53.167 46.444,53.056 46.333,52.833 46.333 C 52.611 46.333,52.500 46.222,52.500 46.000 C 52.500 45.730,52.389 45.667,51.917 45.667 C 51.444 45.667,51.333 45.603,51.333 45.333 C 51.333 45.111,51.222 45.000,51.000 45.000 C 50.815 45.000,50.667 44.889,50.667 44.750 C 50.667 44.611,50.519 44.500,50.333 44.500 C 50.111 44.500,50.000 44.389,50.000 44.167 C 50.000 43.981,49.889 43.833,49.750 43.833 C 49.575 43.833,49.500 43.657,49.500 43.250 C 49.500 42.778,49.437 42.667,49.167 42.667 C 48.944 42.667,48.833 42.556,48.833 42.333 C 48.833 42.111,48.722 42.000,48.500 42.000 C 48.222 42.000,48.167 41.889,48.167 41.333 C 48.167 40.852,48.097 40.667,47.917 40.667 C 47.727 40.667,47.667 40.461,47.667 39.818 C 47.667 39.109,47.612 38.954,47.333 38.882 C 47.019 38.799,47.000 38.654,47.000 36.314 C 47.000 33.944,47.015 33.833,47.333 33.833 C 47.626 33.833,47.667 33.722,47.667 32.917 C 47.667 32.213,47.725 32.000,47.917 32.000 C 48.091 32.000,48.167 31.824,48.167 31.417 C 48.167 30.944,48.230 30.833,48.500 30.833 C 48.778 30.833,48.833 30.722,48.833 30.167 C 48.833 29.611,48.889 29.500,49.167 29.500 C 49.389 29.500,49.500 29.389,49.500 29.167 C 49.500 28.981,49.611 28.833,49.750 28.833 C 49.925 28.833,50.000 28.657,50.000 28.250 C 50.000 27.681,50.016 27.667,50.667 27.667 C 51.222 27.667,51.333 27.611,51.333 27.333 C 51.333 27.111,51.444 27.000,51.667 27.000 C 51.852 27.000,52.000 26.889,52.000 26.750 C 52.000 26.613,52.112 26.500,52.250 26.500 C 52.389 26.500,52.500 26.352,52.500 26.167 C 52.500 25.889,52.611 25.833,53.167 25.833 C 53.722 25.833,53.833 25.778,53.833 25.500 C 53.833 25.207,53.944 25.167,54.750 25.167 C 55.556 25.167,55.667 25.126,55.667 24.833 C 55.667 24.511,55.778 24.500,59.083 24.500 C 62.389 24.500,62.500 24.511,62.500 24.833 M37.048 49.167 C 37.121 49.445,37.276 49.500,37.984 49.500 C 38.628 49.500,38.833 49.560,38.833 49.750 C 38.833 49.931,39.019 50.000,39.500 50.000 C 40.056 50.000,40.167 50.056,40.167 50.333 C 40.167 50.603,40.278 50.667,40.750 50.667 C 41.222 50.667,41.333 50.730,41.333 51.000 C 41.333 51.222,41.444 51.333,41.667 51.333 C 41.852 51.333,42.000 51.444,42.000 51.583 C 42.000 51.722,42.148 51.833,42.333 51.833 C 42.556 51.833,42.667 51.944,42.667 52.167 C 42.667 52.352,42.778 52.500,42.917 52.500 C 43.056 52.500,43.167 52.648,43.167 52.833 C 43.167 53.056,43.278 53.167,43.500 53.167 C 43.770 53.167,43.833 53.278,43.833 53.750 C 43.833 54.222,43.897 54.333,44.167 54.333 C 44.389 54.333,44.500 54.444,44.500 54.667 C 44.500 54.889,44.611 55.000,44.833 55.000 C 45.126 55.000,45.167 55.111,45.167 55.917 C 45.167 56.620,45.225 56.833,45.417 56.833 C 45.609 56.833,45.667 57.046,45.667 57.750 C 45.667 58.556,45.707 58.667,46.000 58.667 C 46.314 58.667,46.333 58.778,46.333 60.583 C 46.333 62.389,46.314 62.500,46.000 62.500 C 45.707 62.500,45.667 62.611,45.667 63.417 C 45.667 64.120,45.609 64.333,45.417 64.333 C 45.225 64.333,45.167 64.546,45.167 65.250 C 45.167 66.056,45.126 66.167,44.833 66.167 C 44.611 66.167,44.500 66.278,44.500 66.500 C 44.500 66.722,44.389 66.833,44.167 66.833 C 43.899 66.833,43.833 66.944,43.833 67.397 C 43.833 67.821,43.750 67.983,43.500 68.048 C 43.317 68.096,43.167 68.255,43.167 68.401 C 43.167 68.547,43.054 68.667,42.917 68.667 C 42.778 68.667,42.667 68.815,42.667 69.000 C 42.667 69.222,42.556 69.333,42.333 69.333 C 42.111 69.333,42.000 69.444,42.000 69.667 C 42.000 69.889,41.889 70.000,41.667 70.000 C 41.481 70.000,41.333 70.111,41.333 70.250 C 41.333 70.425,41.157 70.500,40.750 70.500 C 40.278 70.500,40.167 70.563,40.167 70.833 C 40.167 71.111,40.056 71.167,39.500 71.167 C 38.944 71.167,38.833 71.222,38.833 71.500 C 38.833 71.793,38.722 71.833,37.917 71.833 C 37.111 71.833,37.000 71.874,37.000 72.167 C 37.000 72.487,36.889 72.500,34.167 72.500 C 31.444 72.500,31.333 72.487,31.333 72.167 C 31.333 71.897,31.222 71.833,30.750 71.833 C 30.278 71.833,30.167 71.770,30.167 71.500 C 30.167 71.207,30.056 71.167,29.250 71.167 C 28.444 71.167,28.333 71.126,28.333 70.833 C 28.333 70.611,28.222 70.500,28.000 70.500 C 27.815 70.500,27.667 70.389,27.667 70.250 C 27.667 70.111,27.519 70.000,27.333 70.000 C 27.111 70.000,27.000 69.889,27.000 69.667 C 27.000 69.397,26.889 69.333,26.417 69.333 C 25.858 69.333,25.833 69.308,25.833 68.734 C 25.833 68.276,25.755 68.115,25.500 68.048 C 25.317 68.000,25.167 67.857,25.167 67.731 C 25.167 67.604,25.017 67.500,24.833 67.500 C 24.611 67.500,24.500 67.389,24.500 67.167 C 24.500 66.981,24.389 66.833,24.250 66.833 C 24.075 66.833,24.000 66.657,24.000 66.250 C 24.000 65.778,23.937 65.667,23.667 65.667 C 23.370 65.667,23.333 65.556,23.333 64.667 C 23.333 63.778,23.296 63.667,23.000 63.667 C 22.679 63.667,22.667 63.556,22.667 60.583 C 22.667 57.611,22.679 57.500,23.000 57.500 C 23.293 57.500,23.333 57.389,23.333 56.583 C 23.333 55.778,23.374 55.667,23.667 55.667 C 23.944 55.667,24.000 55.556,24.000 55.000 C 24.000 54.519,24.069 54.333,24.250 54.333 C 24.387 54.333,24.500 54.221,24.500 54.083 C 24.500 53.944,24.648 53.833,24.833 53.833 C 25.056 53.833,25.167 53.722,25.167 53.500 C 25.167 53.278,25.278 53.167,25.500 53.167 C 25.778 53.167,25.833 53.056,25.833 52.500 C 25.833 51.849,25.847 51.833,26.417 51.833 C 26.824 51.833,27.000 51.758,27.000 51.583 C 27.000 51.444,27.148 51.333,27.333 51.333 C 27.556 51.333,27.667 51.222,27.667 51.000 C 27.667 50.778,27.778 50.667,28.000 50.667 C 28.222 50.667,28.333 50.556,28.333 50.333 C 28.333 50.040,28.444 50.000,29.250 50.000 C 29.954 50.000,30.167 49.942,30.167 49.750 C 30.167 49.575,30.343 49.500,30.750 49.500 C 31.222 49.500,31.333 49.437,31.333 49.167 C 31.333 48.846,31.444 48.833,34.147 48.833 C 36.821 48.833,36.965 48.850,37.048 49.167 M86.167 49.167 C 86.167 49.460,86.278 49.500,87.083 49.500 C 87.787 49.500,88.000 49.558,88.000 49.750 C 88.000 49.931,88.185 50.000,88.667 50.000 C 89.222 50.000,89.333 50.056,89.333 50.333 C 89.333 50.519,89.444 50.667,89.583 50.667 C 89.722 50.667,89.833 50.815,89.833 51.000 C 89.833 51.222,89.944 51.333,90.167 51.333 C 90.352 51.333,90.500 51.444,90.500 51.583 C 90.500 51.722,90.648 51.833,90.833 51.833 C 91.056 51.833,91.167 51.944,91.167 52.167 C 91.167 52.437,91.278 52.500,91.750 52.500 C 92.319 52.500,92.333 52.516,92.333 53.167 C 92.333 53.722,92.389 53.833,92.667 53.833 C 92.852 53.833,93.000 53.944,93.000 54.083 C 93.000 54.222,93.148 54.333,93.333 54.333 C 93.611 54.333,93.667 54.444,93.667 55.000 C 93.667 55.481,93.736 55.667,93.917 55.667 C 94.085 55.667,94.167 55.835,94.167 56.182 C 94.167 56.558,94.257 56.722,94.500 56.785 C 94.803 56.864,94.833 57.012,94.833 58.436 C 94.833 59.889,94.857 60.000,95.167 60.000 C 95.437 60.000,95.500 60.111,95.500 60.583 C 95.500 61.056,95.437 61.167,95.167 61.167 C 94.857 61.167,94.833 61.278,94.833 62.731 C 94.833 64.154,94.803 64.302,94.500 64.382 C 94.245 64.448,94.167 64.609,94.167 65.068 C 94.167 65.489,94.093 65.667,93.917 65.667 C 93.742 65.667,93.667 65.843,93.667 66.250 C 93.667 66.722,93.603 66.833,93.333 66.833 C 93.111 66.833,93.000 66.944,93.000 67.167 C 93.000 67.389,92.889 67.500,92.667 67.500 C 92.397 67.500,92.333 67.611,92.333 68.083 C 92.333 68.639,92.306 68.667,91.750 68.667 C 91.278 68.667,91.167 68.730,91.167 69.000 C 91.167 69.222,91.056 69.333,90.833 69.333 C 90.611 69.333,90.500 69.444,90.500 69.667 C 90.500 69.889,90.389 70.000,90.167 70.000 C 89.981 70.000,89.833 70.111,89.833 70.250 C 89.833 70.387,89.721 70.500,89.583 70.500 C 89.444 70.500,89.333 70.648,89.333 70.833 C 89.333 71.111,89.222 71.167,88.667 71.167 C 88.111 71.167,88.000 71.222,88.000 71.500 C 88.000 71.793,87.889 71.833,87.083 71.833 C 86.278 71.833,86.167 71.874,86.167 72.167 C 86.167 72.487,86.056 72.500,83.333 72.500 C 80.611 72.500,80.500 72.487,80.500 72.167 C 80.500 71.874,80.389 71.833,79.583 71.833 C 78.778 71.833,78.667 71.793,78.667 71.500 C 78.667 71.230,78.556 71.167,78.083 71.167 C 77.611 71.167,77.500 71.103,77.500 70.833 C 77.500 70.611,77.389 70.500,77.167 70.500 C 76.981 70.500,76.833 70.389,76.833 70.250 C 76.833 70.069,76.648 70.000,76.167 70.000 C 75.611 70.000,75.500 69.944,75.500 69.667 C 75.500 69.481,75.389 69.333,75.250 69.333 C 75.111 69.333,75.000 69.185,75.000 69.000 C 75.000 68.778,74.889 68.667,74.667 68.667 C 74.444 68.667,74.333 68.556,74.333 68.333 C 74.333 68.111,74.222 68.000,74.000 68.000 C 73.730 68.000,73.667 67.889,73.667 67.417 C 73.667 67.009,73.591 66.833,73.417 66.833 C 73.242 66.833,73.167 66.657,73.167 66.250 C 73.167 65.778,73.103 65.667,72.833 65.667 C 72.556 65.667,72.500 65.556,72.500 65.000 C 72.500 64.444,72.444 64.333,72.167 64.333 C 71.863 64.333,71.833 64.222,71.833 63.083 C 71.833 61.944,71.804 61.833,71.500 61.833 C 71.196 61.833,71.167 61.722,71.167 60.583 C 71.167 59.444,71.196 59.333,71.500 59.333 C 71.804 59.333,71.833 59.222,71.833 58.083 C 71.833 56.944,71.863 56.833,72.167 56.833 C 72.437 56.833,72.500 56.722,72.500 56.250 C 72.500 55.778,72.563 55.667,72.833 55.667 C 73.111 55.667,73.167 55.556,73.167 55.000 C 73.167 54.519,73.236 54.333,73.417 54.333 C 73.591 54.333,73.667 54.157,73.667 53.750 C 73.667 53.278,73.730 53.167,74.000 53.167 C 74.222 53.167,74.333 53.056,74.333 52.833 C 74.333 52.611,74.444 52.500,74.667 52.500 C 74.889 52.500,75.000 52.389,75.000 52.167 C 75.000 51.981,75.111 51.833,75.250 51.833 C 75.387 51.833,75.500 51.721,75.500 51.583 C 75.500 51.403,75.685 51.333,76.167 51.333 C 76.722 51.333,76.833 51.278,76.833 51.000 C 76.833 50.778,76.944 50.667,77.167 50.667 C 77.389 50.667,77.500 50.556,77.500 50.333 C 77.500 50.063,77.611 50.000,78.083 50.000 C 78.491 50.000,78.667 49.925,78.667 49.750 C 78.667 49.558,78.880 49.500,79.583 49.500 C 80.389 49.500,80.500 49.460,80.500 49.167 C 80.500 48.846,80.611 48.833,83.333 48.833 C 86.056 48.833,86.167 48.846,86.167 49.167 M60.667 73.333 C 60.667 73.626,60.778 73.667,61.583 73.667 C 62.389 73.667,62.500 73.707,62.500 74.000 C 62.500 74.293,62.611 74.333,63.417 74.333 C 64.120 74.333,64.333 74.391,64.333 74.583 C 64.333 74.722,64.481 74.833,64.667 74.833 C 64.889 74.833,65.000 74.944,65.000 75.167 C 65.000 75.444,65.111 75.500,65.667 75.500 C 66.222 75.500,66.333 75.556,66.333 75.833 C 66.333 76.019,66.444 76.167,66.583 76.167 C 66.722 76.167,66.833 76.315,66.833 76.500 C 66.833 76.722,66.944 76.833,67.167 76.833 C 67.352 76.833,67.500 76.944,67.500 77.083 C 67.500 77.222,67.648 77.333,67.833 77.333 C 68.056 77.333,68.167 77.444,68.167 77.667 C 68.167 77.852,68.278 78.000,68.417 78.000 C 68.593 78.000,68.667 78.178,68.667 78.599 C 68.667 79.058,68.745 79.218,69.000 79.285 C 69.250 79.351,69.333 79.512,69.333 79.936 C 69.333 80.389,69.399 80.500,69.667 80.500 C 69.960 80.500,70.000 80.611,70.000 81.417 C 70.000 82.222,70.040 82.333,70.333 82.333 C 70.654 82.333,70.667 82.444,70.667 85.167 C 70.667 87.889,70.654 88.000,70.333 88.000 C 70.040 88.000,70.000 88.111,70.000 88.917 C 70.000 89.722,69.960 89.833,69.667 89.833 C 69.399 89.833,69.333 89.944,69.333 90.397 C 69.333 90.821,69.250 90.983,69.000 91.048 C 68.817 91.096,68.667 91.255,68.667 91.401 C 68.667 91.547,68.554 91.667,68.417 91.667 C 68.278 91.667,68.167 91.815,68.167 92.000 C 68.167 92.222,68.056 92.333,67.833 92.333 C 67.611 92.333,67.500 92.444,67.500 92.667 C 67.500 92.889,67.389 93.000,67.167 93.000 C 66.897 93.000,66.833 93.111,66.833 93.583 C 66.833 94.139,66.806 94.167,66.250 94.167 C 65.778 94.167,65.667 94.230,65.667 94.500 C 65.667 94.722,65.556 94.833,65.333 94.833 C 65.111 94.833,65.000 94.944,65.000 95.167 C 65.000 95.437,64.889 95.500,64.417 95.500 C 64.009 95.500,63.833 95.575,63.833 95.750 C 63.833 95.931,63.648 96.000,63.167 96.000 C 62.611 96.000,62.500 96.056,62.500 96.333 C 62.500 96.656,62.389 96.667,59.083 96.667 C 55.778 96.667,55.667 96.656,55.667 96.333 C 55.667 96.040,55.556 96.000,54.750 96.000 C 54.046 96.000,53.833 95.942,53.833 95.750 C 53.833 95.569,53.648 95.500,53.167 95.500 C 52.611 95.500,52.500 95.444,52.500 95.167 C 52.500 94.981,52.389 94.833,52.250 94.833 C 52.111 94.833,52.000 94.685,52.000 94.500 C 52.000 94.278,51.889 94.167,51.667 94.167 C 51.444 94.167,51.333 94.056,51.333 93.833 C 51.333 93.556,51.222 93.500,50.667 93.500 C 50.016 93.500,50.000 93.486,50.000 92.917 C 50.000 92.509,49.925 92.333,49.750 92.333 C 49.611 92.333,49.500 92.185,49.500 92.000 C 49.500 91.778,49.389 91.667,49.167 91.667 C 48.897 91.667,48.833 91.556,48.833 91.083 C 48.833 90.611,48.770 90.500,48.500 90.500 C 48.222 90.500,48.167 90.389,48.167 89.833 C 48.167 89.352,48.097 89.167,47.917 89.167 C 47.727 89.167,47.667 88.961,47.667 88.318 C 47.667 87.609,47.612 87.454,47.333 87.382 C 47.019 87.299,47.000 87.154,47.000 84.814 C 47.000 82.444,47.015 82.333,47.333 82.333 C 47.626 82.333,47.667 82.222,47.667 81.417 C 47.667 80.713,47.725 80.500,47.917 80.500 C 48.091 80.500,48.167 80.324,48.167 79.917 C 48.167 79.444,48.230 79.333,48.500 79.333 C 48.722 79.333,48.833 79.222,48.833 79.000 C 48.833 78.778,48.944 78.667,49.167 78.667 C 49.444 78.667,49.500 78.556,49.500 78.000 C 49.500 77.519,49.569 77.333,49.750 77.333 C 49.887 77.333,50.000 77.221,50.000 77.083 C 50.000 76.944,50.148 76.833,50.333 76.833 C 50.556 76.833,50.667 76.722,50.667 76.500 C 50.667 76.278,50.778 76.167,51.000 76.167 C 51.222 76.167,51.333 76.056,51.333 75.833 C 51.333 75.563,51.444 75.500,51.917 75.500 C 52.389 75.500,52.500 75.437,52.500 75.167 C 52.500 74.944,52.611 74.833,52.833 74.833 C 53.019 74.833,53.167 74.722,53.167 74.583 C 53.167 74.391,53.380 74.333,54.083 74.333 C 54.889 74.333,55.000 74.293,55.000 74.000 C 55.000 73.696,55.111 73.667,56.250 73.667 C 57.389 73.667,57.500 73.637,57.500 73.333 C 57.500 73.023,57.611 73.000,59.083 73.000 C 60.556 73.000,60.667 73.023,60.667 73.333 " stroke="none" fill="#fc34cc" fill-rule="evenodd"></path></g></svg>