<svg id="svg" version="1.1" xmlns="http://www.w3.org/2000/svg" xmlns:xlink="http://www.w3.org/1999/xlink" width="400" height="76.68711656441718" viewBox="0, 0, 400,76.68711656441718"><g id="svgg"><path id="path0" d="M0.208 0.249 C -0.124 0.627,-0.095 76.096,0.238 76.429 C 0.443 76.634,6.135 76.667,41.250 76.667 C 84.718 76.667,82.500 76.706,82.500 75.929 C 82.500 75.778,82.641 75.667,82.833 75.667 C 83.353 75.667,83.353 68.786,82.833 68.461 C 82.650 68.347,82.500 68.159,82.500 68.043 C 82.500 67.890,82.095 67.833,81.000 67.833 C 80.175 67.833,79.500 67.903,79.500 67.989 C 79.500 68.074,79.350 68.192,79.167 68.250 C 78.935 68.323,78.833 68.502,78.833 68.835 C 78.833 69.098,78.758 69.360,78.667 69.417 C 78.575 69.474,78.500 70.224,78.500 71.093 L 78.500 72.667 77.875 72.669 C 77.005 72.672,76.500 72.831,76.500 73.103 C 76.500 73.298,71.417 73.333,43.037 73.333 L 9.574 73.333 9.279 72.989 C 8.999 72.662,8.842 72.648,6.159 72.697 L 3.333 72.750 3.333 38.333 L 3.334 3.917 5.345 3.917 C 7.088 3.917,7.379 3.878,7.520 3.625 C 7.626 3.435,7.884 3.333,8.258 3.333 C 8.658 3.333,8.833 3.257,8.833 3.083 C 8.833 2.946,8.983 2.683,9.167 2.500 C 9.373 2.294,9.500 1.944,9.500 1.583 C 9.500 1.222,9.373 0.873,9.167 0.667 C 8.983 0.483,8.833 0.258,8.833 0.167 C 8.833 -0.121,0.464 -0.041,0.208 0.249 M85.000 37.750 L 85.000 58.000 90.167 58.000 L 95.333 58.000 95.333 50.333 L 95.333 42.667 101.708 42.664 C 105.215 42.663,108.252 42.617,108.458 42.562 L 108.833 42.461 108.833 37.415 C 108.833 32.967,108.802 32.357,108.570 32.268 C 108.425 32.212,105.387 32.167,101.820 32.167 L 95.333 32.167 95.333 30.333 L 95.333 28.500 104.830 28.500 L 114.327 28.500 114.423 28.118 C 114.567 27.542,114.437 17.948,114.282 17.708 C 114.176 17.544,111.049 17.500,99.573 17.500 L 85.000 17.500 85.000 37.750 M115.667 37.750 L 115.667 58.000 120.833 58.000 L 126.000 58.000 126.000 37.750 L 126.000 17.500 120.833 17.500 L 115.667 17.500 115.667 37.750 M127.940 18.125 C 127.807 18.931,127.805 57.128,127.938 57.625 L 128.039 58.000 142.686 58.000 L 157.333 58.000 157.333 52.500 L 157.333 47.000 147.833 47.000 L 138.333 47.000 138.333 32.250 L 138.333 17.500 133.188 17.500 L 128.044 17.500 127.940 18.125 M159.278 17.611 C 159.217 17.672,159.167 26.785,159.167 37.861 L 159.167 58.000 164.417 58.000 L 169.667 58.000 169.667 47.516 C 169.667 37.113,169.669 37.032,170.000 37.118 C 170.183 37.166,170.333 37.309,170.333 37.436 C 170.333 37.563,170.446 37.667,170.583 37.667 C 170.721 37.667,170.833 37.786,170.833 37.932 C 170.833 38.078,170.983 38.237,171.167 38.285 C 171.350 38.333,171.500 38.483,171.500 38.618 C 171.500 38.754,171.650 38.904,171.833 38.952 C 172.017 39.000,172.167 39.143,172.167 39.269 C 172.167 39.396,172.270 39.500,172.397 39.500 C 172.524 39.500,172.667 39.650,172.715 39.833 C 172.763 40.017,172.913 40.167,173.048 40.167 C 173.184 40.167,173.334 40.317,173.382 40.500 C 173.430 40.683,173.588 40.833,173.734 40.833 C 173.880 40.833,174.000 40.946,174.000 41.083 C 174.000 41.221,174.104 41.333,174.231 41.333 C 174.357 41.333,174.500 41.483,174.548 41.667 C 174.596 41.850,174.746 42.000,174.882 42.000 C 175.017 42.000,175.167 42.150,175.215 42.333 C 175.291 42.625,175.442 42.667,176.417 42.667 C 177.391 42.667,177.542 42.625,177.618 42.333 C 177.666 42.150,177.809 42.000,177.936 42.000 C 178.063 42.000,178.167 41.850,178.167 41.667 C 178.167 41.444,178.278 41.333,178.500 41.333 C 178.685 41.333,178.833 41.222,178.833 41.083 C 178.833 40.946,178.953 40.833,179.099 40.833 C 179.245 40.833,179.404 40.683,179.452 40.500 C 179.500 40.317,179.643 40.167,179.769 40.167 C 179.896 40.167,180.000 40.017,180.000 39.833 C 180.000 39.611,180.111 39.500,180.333 39.500 C 180.517 39.500,180.667 39.396,180.667 39.269 C 180.667 39.143,180.817 39.000,181.000 38.952 C 181.183 38.904,181.333 38.745,181.333 38.599 C 181.333 38.453,181.446 38.333,181.583 38.333 C 181.722 38.333,181.833 38.185,181.833 38.000 C 181.833 37.778,181.944 37.667,182.167 37.667 C 182.350 37.667,182.500 37.563,182.500 37.436 C 182.500 37.309,182.650 37.166,182.833 37.118 C 183.164 37.032,183.167 37.113,183.167 47.516 L 183.167 58.000 188.333 58.000 L 193.500 58.000 193.500 37.750 L 193.500 17.500 188.333 17.500 C 183.278 17.500,183.167 17.507,183.167 17.833 C 183.167 18.056,183.056 18.167,182.833 18.167 C 182.650 18.167,182.500 18.271,182.500 18.399 C 182.500 18.527,182.392 18.673,182.259 18.723 C 182.127 18.774,181.968 19.082,181.907 19.408 C 181.843 19.749,181.698 20.000,181.565 20.000 C 181.437 20.000,181.333 20.112,181.333 20.250 C 181.333 20.387,181.219 20.500,181.079 20.500 C 180.939 20.500,180.754 20.688,180.667 20.917 C 180.580 21.146,180.437 21.333,180.351 21.333 C 180.264 21.333,180.144 21.558,180.083 21.833 C 180.023 22.108,179.867 22.333,179.737 22.333 C 179.607 22.333,179.500 22.475,179.500 22.647 C 179.500 22.821,179.351 23.000,179.167 23.048 C 178.943 23.107,178.833 23.276,178.833 23.562 C 178.833 23.818,178.700 24.060,178.500 24.167 C 178.317 24.265,178.167 24.455,178.167 24.589 C 178.167 24.723,178.054 24.833,177.917 24.833 C 177.778 24.833,177.667 24.981,177.667 25.167 C 177.667 25.389,177.556 25.500,177.333 25.500 C 177.148 25.500,177.000 25.611,177.000 25.750 C 177.000 26.340,176.455 26.615,176.044 26.231 C 175.837 26.037,175.667 25.793,175.667 25.689 C 175.667 25.585,175.554 25.500,175.417 25.500 C 175.278 25.500,175.167 25.352,175.167 25.167 C 175.167 24.944,175.056 24.833,174.833 24.833 C 174.617 24.833,174.500 24.722,174.500 24.518 C 174.500 24.344,174.395 24.162,174.266 24.112 C 174.137 24.063,173.981 23.792,173.919 23.511 C 173.857 23.230,173.700 23.000,173.570 23.000 C 173.440 23.000,173.333 22.880,173.333 22.734 C 173.333 22.588,173.183 22.430,173.000 22.382 C 172.817 22.334,172.667 22.158,172.667 21.992 C 172.667 21.592,171.973 20.516,171.708 20.507 C 171.594 20.503,171.500 20.387,171.500 20.250 C 171.500 20.111,171.352 20.000,171.167 20.000 C 170.895 20.000,170.833 19.889,170.833 19.401 C 170.833 18.942,170.755 18.782,170.500 18.715 C 170.317 18.667,170.167 18.524,170.167 18.397 C 170.167 18.270,170.063 18.167,169.936 18.167 C 169.809 18.167,169.666 18.017,169.618 17.833 C 169.530 17.497,159.606 17.283,159.278 17.611 M215.542 17.672 C 215.335 17.755,215.167 17.900,215.167 17.995 C 215.167 18.107,214.116 18.167,212.161 18.167 C 209.644 18.167,209.141 18.207,209.060 18.417 C 208.998 18.578,208.740 18.667,208.329 18.667 C 207.532 18.667,207.167 18.803,207.167 19.101 C 207.167 19.261,206.959 19.333,206.500 19.333 C 205.944 19.333,205.833 19.389,205.833 19.667 C 205.833 19.937,205.722 20.000,205.250 20.000 C 204.843 20.000,204.667 20.075,204.667 20.250 C 204.667 20.389,204.519 20.500,204.333 20.500 C 204.150 20.500,203.850 20.650,203.667 20.833 C 203.483 21.017,203.221 21.167,203.083 21.167 C 202.944 21.167,202.833 21.315,202.833 21.500 C 202.833 21.722,202.722 21.833,202.500 21.833 C 202.317 21.833,202.167 21.937,202.167 22.064 C 202.167 22.191,202.017 22.334,201.833 22.382 C 201.650 22.430,201.500 22.588,201.500 22.734 C 201.500 22.880,201.387 23.000,201.250 23.000 C 201.111 23.000,201.000 23.148,201.000 23.333 C 201.000 23.556,200.889 23.667,200.667 23.667 C 200.481 23.667,200.333 23.778,200.333 23.917 C 200.333 24.054,200.214 24.167,200.068 24.167 C 199.922 24.167,199.763 24.317,199.715 24.500 C 199.667 24.683,199.524 24.833,199.397 24.833 C 199.270 24.833,199.167 24.965,199.167 25.127 C 199.167 25.288,199.017 25.513,198.833 25.628 C 198.650 25.742,198.500 26.014,198.500 26.232 C 198.500 26.488,198.382 26.659,198.167 26.715 C 197.931 26.777,197.833 26.942,197.833 27.281 C 197.833 27.553,197.690 27.882,197.500 28.045 C 197.317 28.202,197.167 28.518,197.167 28.748 C 197.167 29.009,197.072 29.167,196.917 29.167 C 196.725 29.167,196.667 29.377,196.667 30.064 C 196.667 30.821,196.615 30.975,196.333 31.048 C 196.042 31.125,196.000 31.276,196.000 32.258 C 196.000 33.134,195.936 33.427,195.708 33.593 C 195.444 33.786,195.417 34.193,195.417 37.886 C 195.417 41.537,195.447 41.999,195.708 42.287 C 195.902 42.501,196.001 42.885,196.002 43.430 C 196.005 44.486,196.147 45.000,196.436 45.000 C 196.594 45.000,196.667 45.210,196.667 45.667 C 196.667 46.148,196.736 46.333,196.917 46.333 C 197.080 46.333,197.167 46.497,197.167 46.808 C 197.167 47.070,197.315 47.416,197.500 47.583 C 197.683 47.749,197.833 48.068,197.833 48.291 C 197.833 48.558,197.948 48.728,198.167 48.785 C 198.406 48.848,198.500 49.012,198.500 49.368 C 198.500 49.724,198.594 49.889,198.833 49.952 C 199.018 50.000,199.167 50.179,199.167 50.353 C 199.167 50.525,199.279 50.667,199.417 50.667 C 199.554 50.667,199.667 50.779,199.667 50.917 C 199.667 51.056,199.815 51.167,200.000 51.167 C 200.222 51.167,200.333 51.278,200.333 51.500 C 200.333 51.683,200.470 51.970,200.638 52.138 C 200.805 52.305,200.990 52.568,201.049 52.721 C 201.108 52.874,201.308 53.000,201.493 53.000 C 201.679 53.000,201.924 53.150,202.039 53.333 C 202.153 53.517,202.379 53.667,202.540 53.667 C 202.722 53.667,202.833 53.793,202.833 54.000 C 202.833 54.185,202.944 54.333,203.083 54.333 C 203.221 54.333,203.333 54.446,203.333 54.583 C 203.333 54.764,203.519 54.833,204.000 54.833 C 204.556 54.833,204.667 54.889,204.667 55.167 C 204.667 55.389,204.778 55.500,205.000 55.500 C 205.183 55.500,205.333 55.609,205.333 55.742 C 205.333 55.887,205.565 56.028,205.905 56.092 C 206.220 56.151,206.517 56.305,206.567 56.433 C 206.627 56.591,206.929 56.667,207.495 56.667 C 208.222 56.667,208.333 56.711,208.333 57.000 C 208.333 57.302,208.444 57.333,209.516 57.333 C 210.567 57.333,210.708 57.371,210.787 57.674 C 210.915 58.164,219.381 58.117,219.740 57.625 C 219.896 57.412,220.187 57.333,220.826 57.333 C 221.558 57.333,221.712 57.280,221.785 57.000 C 221.857 56.725,222.012 56.667,222.668 56.667 C 223.222 56.667,223.494 56.591,223.560 56.417 C 223.613 56.279,223.802 56.167,223.981 56.167 C 224.483 56.167,224.833 55.988,224.833 55.732 C 224.833 55.604,224.983 55.500,225.167 55.500 C 225.389 55.500,225.500 55.389,225.500 55.167 C 225.500 54.897,225.611 54.833,226.083 54.833 C 226.469 54.833,226.667 54.755,226.667 54.603 C 226.667 54.476,226.817 54.333,227.000 54.285 C 227.183 54.237,227.333 54.078,227.333 53.932 C 227.333 53.786,227.446 53.667,227.583 53.667 C 227.722 53.667,227.833 53.519,227.833 53.333 C 227.833 53.111,227.944 53.000,228.167 53.000 C 228.352 53.000,228.500 52.889,228.500 52.750 C 228.500 52.612,228.620 52.500,228.766 52.500 C 228.912 52.500,229.070 52.350,229.118 52.167 C 229.166 51.983,229.301 51.833,229.418 51.833 C 229.656 51.833,229.833 51.471,229.833 50.986 C 229.833 50.811,229.946 50.667,230.083 50.667 C 230.221 50.667,230.333 50.525,230.333 50.353 C 230.333 50.179,230.482 50.000,230.667 49.952 C 230.902 49.890,231.000 49.724,231.000 49.386 C 231.000 49.114,231.144 48.784,231.333 48.622 C 231.550 48.436,231.667 48.130,231.667 47.746 C 231.667 47.376,231.760 47.121,231.917 47.060 C 232.080 46.998,232.167 46.738,232.167 46.316 C 232.167 45.872,232.240 45.667,232.399 45.667 C 232.804 45.667,232.833 45.255,232.833 39.570 L 232.833 34.000 224.583 34.000 L 216.333 34.000 216.333 38.000 L 216.333 42.000 219.083 42.000 L 221.833 42.000 221.833 42.667 C 221.833 43.222,221.778 43.333,221.500 43.333 C 221.230 43.333,221.167 43.444,221.167 43.917 C 221.167 44.389,221.103 44.500,220.833 44.500 C 220.611 44.500,220.500 44.611,220.500 44.833 C 220.500 45.019,220.389 45.167,220.250 45.167 C 220.112 45.167,220.000 45.279,220.000 45.417 C 220.000 45.556,219.852 45.667,219.667 45.667 C 219.444 45.667,219.333 45.778,219.333 46.000 C 219.333 46.270,219.222 46.333,218.750 46.333 C 218.278 46.333,218.167 46.397,218.167 46.667 C 218.167 47.182,212.717 47.182,212.250 46.667 C 212.048 46.443,211.737 46.333,211.308 46.333 C 210.778 46.333,210.667 46.276,210.667 46.000 C 210.667 45.812,210.556 45.667,210.411 45.667 C 210.271 45.667,210.113 45.554,210.060 45.417 C 210.008 45.279,209.889 45.167,209.797 45.167 C 209.555 45.167,208.840 44.453,208.836 44.208 C 208.835 44.094,208.730 44.000,208.603 44.000 C 208.476 44.000,208.333 43.850,208.285 43.667 C 208.237 43.483,208.078 43.333,207.932 43.333 C 207.786 43.333,207.667 43.201,207.667 43.040 C 207.667 42.879,207.517 42.653,207.333 42.539 C 207.080 42.381,207.000 42.150,207.000 41.582 C 207.000 41.028,206.935 40.833,206.750 40.833 C 206.537 40.833,206.500 40.380,206.500 37.750 C 206.500 35.120,206.537 34.667,206.750 34.667 C 206.931 34.667,207.000 34.481,207.000 34.000 C 207.000 33.444,207.056 33.333,207.333 33.333 C 207.603 33.333,207.667 33.222,207.667 32.750 C 207.667 32.426,207.751 32.167,207.856 32.167 C 208.078 32.167,208.833 31.388,208.833 31.158 C 208.833 31.071,208.953 31.000,209.099 31.000 C 209.245 31.000,209.404 30.850,209.452 30.667 C 209.500 30.482,209.679 30.333,209.853 30.333 C 210.056 30.333,210.167 30.215,210.167 30.000 C 210.167 29.730,210.278 29.667,210.750 29.667 C 211.157 29.667,211.333 29.591,211.333 29.417 C 211.333 29.220,211.565 29.167,212.415 29.167 C 213.317 29.167,213.532 29.111,213.705 28.833 C 213.908 28.508,214.094 28.500,221.207 28.500 L 228.500 28.500 228.500 23.000 L 228.500 17.500 222.208 17.511 C 218.748 17.516,215.748 17.589,215.542 17.672 M234.667 37.752 L 234.667 58.005 239.875 57.961 L 245.083 57.917 245.127 51.792 L 245.171 45.667 248.502 45.667 L 251.833 45.667 251.833 46.849 C 251.833 47.891,251.873 48.042,252.167 48.118 C 252.459 48.195,252.500 48.346,252.500 49.353 C 252.500 50.261,252.552 50.500,252.750 50.500 C 252.934 50.500,253.000 50.692,253.000 51.229 C 253.000 52.290,253.175 53.000,253.438 53.000 C 253.610 53.000,253.667 53.290,253.667 54.182 C 253.667 55.224,253.706 55.375,254.000 55.452 C 254.292 55.528,254.333 55.679,254.333 56.667 C 254.333 57.695,254.366 57.803,254.708 57.895 C 255.197 58.026,264.969 58.026,265.458 57.895 C 265.905 57.775,266.016 56.833,265.583 56.833 C 265.384 56.833,265.333 56.588,265.333 55.623 C 265.333 54.594,265.284 54.382,265.000 54.205 C 264.723 54.032,264.667 53.817,264.667 52.933 C 264.667 52.141,264.603 51.844,264.417 51.773 C 264.230 51.701,264.167 51.402,264.167 50.589 C 264.167 49.722,264.099 49.432,263.833 49.167 C 263.581 48.914,263.500 48.611,263.500 47.917 C 263.500 47.222,263.419 46.919,263.167 46.667 C 262.918 46.418,262.833 46.111,262.833 45.454 C 262.833 44.970,262.732 44.426,262.608 44.245 C 262.130 43.549,262.126 40.833,262.603 40.833 C 262.730 40.833,262.833 40.683,262.833 40.500 C 262.833 40.278,262.944 40.167,263.167 40.167 C 263.383 40.167,263.500 40.056,263.500 39.851 C 263.500 39.678,263.605 39.495,263.734 39.446 C 263.863 39.396,264.019 39.126,264.081 38.845 C 264.143 38.563,264.300 38.333,264.430 38.333 C 264.594 38.333,264.667 38.134,264.667 37.686 C 264.667 37.179,264.739 37.020,265.000 36.952 C 265.272 36.880,265.333 36.724,265.333 36.099 C 265.333 35.556,265.430 35.237,265.667 35.000 C 265.975 34.691,266.000 34.444,266.000 31.673 C 266.000 28.849,265.981 28.668,265.667 28.500 C 265.390 28.352,265.333 28.151,265.333 27.312 C 265.333 26.442,265.287 26.290,265.000 26.215 C 264.739 26.147,264.667 25.988,264.667 25.481 C 264.667 25.032,264.594 24.833,264.430 24.833 C 264.300 24.833,264.143 24.603,264.081 24.322 C 264.019 24.041,263.863 23.770,263.734 23.721 C 263.605 23.671,263.500 23.489,263.500 23.316 C 263.500 23.111,263.383 23.000,263.167 23.000 C 262.944 23.000,262.833 22.889,262.833 22.667 C 262.833 22.483,262.729 22.333,262.601 22.333 C 262.473 22.333,262.326 22.221,262.273 22.083 C 262.220 21.946,262.062 21.833,261.922 21.833 C 261.778 21.833,261.667 21.688,261.667 21.500 C 261.667 21.278,261.556 21.167,261.333 21.167 C 261.111 21.167,261.000 21.056,261.000 20.833 C 261.000 20.645,260.889 20.500,260.745 20.500 C 260.604 20.500,260.446 20.387,260.394 20.250 C 260.341 20.112,260.119 20.000,259.900 20.000 C 259.682 20.000,259.409 19.850,259.295 19.667 C 259.180 19.483,258.935 19.333,258.750 19.333 C 258.565 19.333,258.320 19.183,258.205 19.000 C 258.054 18.757,257.817 18.667,257.332 18.667 C 256.852 18.667,256.667 18.597,256.667 18.417 C 256.667 18.206,256.291 18.167,254.290 18.167 C 252.094 18.167,251.898 18.141,251.705 17.833 C 251.502 17.507,251.317 17.500,243.082 17.500 L 234.667 17.500 234.667 37.752 M275.833 17.750 C 275.833 17.887,275.683 18.150,275.500 18.333 C 275.214 18.619,275.167 18.889,275.167 20.231 C 275.167 21.654,275.137 21.802,274.833 21.882 C 274.533 21.960,274.500 22.109,274.500 23.401 C 274.500 24.563,274.453 24.833,274.250 24.833 C 274.045 24.833,274.000 25.120,274.000 26.417 C 274.000 27.889,273.977 28.000,273.667 28.000 C 273.358 28.000,273.333 28.111,273.333 29.481 C 273.333 30.821,273.302 30.969,273.000 31.048 C 272.700 31.127,272.667 31.276,272.667 32.550 C 272.667 33.653,272.612 33.985,272.417 34.060 C 272.220 34.136,272.167 34.477,272.167 35.661 C 272.167 37.056,272.142 37.167,271.833 37.167 C 271.525 37.167,271.500 37.278,271.500 38.647 C 271.500 39.988,271.468 40.136,271.167 40.215 C 270.864 40.294,270.833 40.442,270.833 41.818 C 270.833 42.989,270.782 43.333,270.605 43.333 C 270.348 43.333,270.171 44.161,270.169 45.380 C 270.167 45.934,270.090 46.206,269.917 46.273 C 269.725 46.347,269.667 46.664,269.667 47.644 C 269.667 48.739,269.619 48.949,269.333 49.128 C 269.049 49.306,269.000 49.517,269.000 50.576 C 269.000 51.563,268.943 51.849,268.721 51.973 C 268.504 52.094,268.425 52.449,268.367 53.564 C 268.311 54.635,268.233 55.000,268.062 55.000 C 267.885 55.000,267.833 55.339,267.833 56.500 L 267.833 58.000 273.333 58.000 L 278.833 58.000 278.833 57.333 C 278.833 56.877,278.906 56.667,279.064 56.667 C 279.374 56.667,279.495 56.141,279.498 54.786 C 279.499 53.937,279.562 53.632,279.750 53.560 C 279.946 53.485,280.000 53.149,280.000 52.008 C 280.000 50.763,280.048 50.508,280.333 50.250 C 280.609 50.000,280.667 49.737,280.667 48.724 L 280.667 47.500 284.083 47.500 L 287.500 47.500 287.500 48.750 C 287.500 49.750,287.550 50.000,287.750 50.000 C 287.952 50.000,288.000 50.265,288.002 51.375 C 288.005 52.967,288.114 53.500,288.436 53.500 C 288.616 53.500,288.667 53.836,288.667 55.016 C 288.667 56.391,288.697 56.539,289.000 56.618 C 289.261 56.687,289.333 56.846,289.333 57.353 L 289.333 58.000 294.474 58.000 C 300.125 58.000,300.725 57.893,299.942 57.029 C 299.728 56.792,299.667 56.384,299.667 55.195 C 299.667 53.778,299.642 53.667,299.333 53.667 C 299.024 53.667,299.000 53.556,299.000 52.104 C 299.000 50.918,298.940 50.491,298.750 50.333 C 298.571 50.185,298.499 49.788,298.498 48.938 C 298.495 47.527,298.377 47.000,298.064 47.000 C 297.884 47.000,297.833 46.664,297.833 45.484 C 297.833 44.109,297.803 43.961,297.500 43.882 C 297.198 43.803,297.167 43.654,297.167 42.314 C 297.167 41.109,297.120 40.833,296.917 40.833 C 296.713 40.833,296.667 40.557,296.667 39.345 C 296.667 38.002,296.634 37.845,296.333 37.750 C 296.034 37.655,296.000 37.498,296.000 36.196 C 296.000 34.927,295.958 34.721,295.667 34.539 C 295.373 34.355,295.333 34.150,295.333 32.827 C 295.333 31.644,295.280 31.302,295.083 31.227 C 294.894 31.154,294.833 30.843,294.831 29.941 C 294.828 28.527,294.710 28.000,294.397 28.000 C 294.218 28.000,294.167 27.664,294.167 26.484 C 294.167 25.109,294.136 24.961,293.833 24.882 C 293.532 24.803,293.500 24.654,293.500 23.314 C 293.500 22.109,293.453 21.833,293.250 21.833 C 293.049 21.833,293.000 21.576,293.000 20.514 C 293.000 19.050,292.910 18.667,292.566 18.667 C 292.411 18.667,292.333 18.471,292.333 18.083 L 292.333 17.500 284.083 17.500 C 276.861 17.500,275.833 17.531,275.833 17.750 M302.167 37.750 L 302.167 58.000 307.333 58.000 L 312.500 58.000 312.500 51.500 L 312.500 45.000 318.146 45.000 C 322.962 45.000,323.823 44.963,324.000 44.750 C 324.114 44.612,324.468 44.500,324.786 44.500 C 325.224 44.500,325.386 44.419,325.452 44.167 C 325.517 43.916,325.679 43.833,326.103 43.833 C 326.556 43.833,326.667 43.768,326.667 43.500 C 326.667 43.230,326.778 43.167,327.250 43.167 C 327.657 43.167,327.833 43.091,327.833 42.917 C 327.833 42.778,327.981 42.667,328.167 42.667 C 328.389 42.667,328.500 42.556,328.500 42.333 C 328.500 42.111,328.611 42.000,328.833 42.000 C 329.056 42.000,329.167 41.889,329.167 41.667 C 329.167 41.444,329.278 41.333,329.500 41.333 C 329.685 41.333,329.833 41.222,329.833 41.083 C 329.833 40.946,329.946 40.833,330.083 40.833 C 330.222 40.833,330.333 40.685,330.333 40.500 C 330.333 40.278,330.444 40.167,330.667 40.167 C 330.889 40.167,331.000 40.056,331.000 39.833 C 331.000 39.650,331.109 39.500,331.242 39.500 C 331.388 39.500,331.529 39.266,331.594 38.917 C 331.657 38.583,331.803 38.333,331.935 38.333 C 332.088 38.333,332.167 38.138,332.167 37.761 C 332.167 37.336,332.252 37.162,332.500 37.083 C 332.771 36.997,332.833 36.831,332.833 36.196 C 332.833 35.594,332.910 35.365,333.167 35.205 C 333.744 34.845,333.644 27.333,333.063 27.333 C 332.898 27.333,332.833 27.094,332.833 26.484 C 332.833 25.776,332.778 25.621,332.500 25.548 C 332.250 25.483,332.167 25.321,332.167 24.897 C 332.167 24.507,332.090 24.333,331.917 24.333 C 331.779 24.333,331.667 24.214,331.667 24.068 C 331.667 23.922,331.517 23.763,331.333 23.715 C 331.149 23.667,331.000 23.488,331.000 23.314 C 331.000 23.141,330.863 22.863,330.696 22.696 C 330.528 22.528,330.343 22.266,330.284 22.112 C 330.225 21.959,330.062 21.833,329.922 21.833 C 329.778 21.833,329.667 21.688,329.667 21.500 C 329.667 21.315,329.556 21.167,329.417 21.167 C 329.279 21.167,329.167 21.093,329.167 21.002 C 329.167 20.912,328.923 20.720,328.625 20.576 C 327.492 20.030,327.333 19.913,327.333 19.627 C 327.333 19.395,327.192 19.333,326.667 19.333 C 326.111 19.333,326.000 19.278,326.000 19.000 C 326.000 18.730,325.889 18.667,325.417 18.667 C 325.009 18.667,324.833 18.591,324.833 18.417 C 324.833 18.217,324.583 18.167,323.583 18.167 C 322.444 18.167,322.333 18.137,322.333 17.833 C 322.333 17.504,322.222 17.500,312.250 17.500 L 302.167 17.500 302.167 37.750 M335.333 37.750 L 335.333 58.000 340.500 58.000 L 345.667 58.000 345.667 50.333 L 345.667 42.667 350.250 42.667 L 354.833 42.667 354.836 50.125 C 354.837 54.227,354.899 57.678,354.972 57.794 C 355.076 57.958,356.298 57.995,360.511 57.961 L 365.917 57.917 365.959 38.138 C 365.986 25.527,365.942 18.203,365.838 17.929 L 365.675 17.500 360.358 17.500 L 355.042 17.500 354.938 18.021 C 354.880 18.307,354.833 21.607,354.833 25.354 L 354.833 32.167 350.250 32.167 L 345.667 32.167 345.667 24.833 L 345.667 17.500 340.500 17.500 L 335.333 17.500 335.333 37.750 M377.500 18.417 C 377.377 18.565,377.013 18.667,376.603 18.667 C 376.094 18.667,375.859 18.754,375.705 19.000 C 375.552 19.245,375.317 19.333,374.816 19.333 C 374.276 19.333,374.118 19.402,374.048 19.667 C 374.000 19.850,373.828 20.000,373.665 20.000 C 373.502 20.000,373.326 20.112,373.273 20.250 C 373.217 20.396,372.967 20.500,372.672 20.500 C 372.278 20.500,372.167 20.573,372.167 20.833 C 372.167 21.056,372.056 21.167,371.833 21.167 C 371.611 21.167,371.500 21.278,371.500 21.500 C 371.500 21.722,371.389 21.833,371.167 21.833 C 370.981 21.833,370.833 21.944,370.833 22.083 C 370.833 22.221,370.730 22.333,370.603 22.333 C 370.476 22.333,370.333 22.483,370.285 22.667 C 370.237 22.850,370.078 23.000,369.932 23.000 C 369.778 23.000,369.667 23.139,369.667 23.333 C 369.667 23.556,369.556 23.667,369.333 23.667 C 369.063 23.667,369.000 23.778,369.000 24.250 C 369.000 24.637,368.922 24.833,368.768 24.833 C 368.512 24.833,368.333 25.184,368.333 25.686 C 368.333 25.864,368.221 26.054,368.083 26.106 C 367.904 26.175,367.833 26.456,367.833 27.101 C 367.833 27.889,367.792 28.000,367.500 28.000 C 367.179 28.000,367.167 28.111,367.167 31.000 C 367.167 33.889,367.179 34.000,367.500 34.000 C 367.793 34.000,367.833 34.111,367.833 34.917 C 367.833 35.588,367.895 35.833,368.065 35.833 C 368.198 35.833,368.343 36.085,368.407 36.425 C 368.468 36.751,368.627 37.059,368.759 37.110 C 368.892 37.161,369.000 37.307,369.000 37.434 C 369.000 37.562,369.150 37.667,369.333 37.667 C 369.595 37.667,369.667 37.778,369.667 38.182 C 369.667 38.558,369.757 38.722,370.000 38.785 C 370.184 38.833,370.333 39.012,370.333 39.186 C 370.333 39.389,370.451 39.500,370.667 39.500 C 370.850 39.500,371.000 39.604,371.000 39.732 C 371.000 39.987,371.350 40.167,371.847 40.167 C 372.056 40.167,372.167 40.283,372.167 40.500 C 372.167 40.685,372.278 40.833,372.417 40.833 C 372.554 40.833,372.667 40.946,372.667 41.083 C 372.667 41.264,372.852 41.333,373.333 41.333 C 373.889 41.333,374.000 41.389,374.000 41.667 C 374.000 41.937,374.111 42.000,374.583 42.000 C 374.971 42.000,375.167 42.078,375.167 42.232 C 375.167 42.576,375.550 42.667,377.014 42.667 C 378.076 42.667,378.333 42.715,378.333 42.917 C 378.333 43.133,378.979 43.167,383.147 43.167 C 387.821 43.167,387.964 43.176,388.048 43.500 C 388.096 43.683,388.246 43.833,388.382 43.833 C 388.517 43.833,388.667 43.983,388.715 44.167 C 388.763 44.350,388.922 44.500,389.068 44.500 C 389.260 44.500,389.333 44.661,389.333 45.083 C 389.333 45.556,389.270 45.667,389.000 45.667 C 388.778 45.667,388.667 45.778,388.667 46.000 C 388.667 46.194,388.556 46.333,388.401 46.333 C 388.255 46.333,388.096 46.483,388.048 46.667 C 387.983 46.917,387.821 47.000,387.397 47.000 C 387.007 47.000,386.833 47.077,386.833 47.250 C 386.833 47.461,386.446 47.500,384.351 47.500 C 382.299 47.500,381.852 47.457,381.773 47.250 C 381.705 47.074,381.430 47.000,380.839 47.000 C 380.111 47.000,380.000 46.956,380.000 46.667 C 380.000 46.483,379.896 46.333,379.769 46.333 C 379.643 46.333,379.500 46.183,379.452 46.000 C 379.404 45.817,379.245 45.667,379.099 45.667 C 378.913 45.667,378.833 45.512,378.833 45.151 C 378.833 44.776,378.743 44.612,378.500 44.548 C 378.314 44.500,378.167 44.321,378.167 44.145 C 378.167 43.840,377.972 43.830,372.708 43.873 L 367.250 43.917 367.202 45.366 C 367.158 46.680,367.186 46.832,367.494 46.997 C 367.755 47.137,367.833 47.344,367.833 47.902 C 367.833 48.317,367.932 48.708,368.065 48.818 C 368.193 48.924,368.347 49.346,368.409 49.755 C 368.481 50.240,368.604 50.500,368.760 50.500 C 368.904 50.500,369.000 50.664,369.000 50.910 C 369.000 51.136,369.138 51.455,369.307 51.619 C 369.475 51.782,369.660 52.048,369.718 52.208 C 369.776 52.369,369.938 52.500,370.078 52.500 C 370.218 52.500,370.333 52.612,370.333 52.750 C 370.333 52.887,370.446 53.000,370.583 53.000 C 370.722 53.000,370.833 53.148,370.833 53.333 C 370.833 53.556,370.944 53.667,371.167 53.667 C 371.389 53.667,371.500 53.778,371.500 54.000 C 371.500 54.222,371.611 54.333,371.833 54.333 C 372.019 54.333,372.167 54.444,372.167 54.583 C 372.167 54.721,372.274 54.833,372.405 54.833 C 372.537 54.833,372.692 54.983,372.750 55.167 C 372.828 55.412,373.002 55.500,373.408 55.500 C 373.821 55.500,373.983 55.585,374.048 55.833 C 374.112 56.076,374.276 56.167,374.651 56.167 C 374.998 56.167,375.167 56.248,375.167 56.417 C 375.167 56.609,375.380 56.667,376.083 56.667 C 376.889 56.667,377.000 56.707,377.000 57.000 C 377.000 57.304,377.111 57.333,378.250 57.333 C 379.203 57.333,379.500 57.388,379.500 57.564 C 379.500 58.153,388.965 58.254,389.118 57.667 C 389.195 57.374,389.346 57.333,390.368 57.333 C 391.391 57.333,391.542 57.293,391.618 57.000 C 391.687 56.739,391.846 56.667,392.353 56.667 C 392.817 56.667,393.000 56.596,393.000 56.417 C 393.000 56.248,393.168 56.167,393.516 56.167 C 393.891 56.167,394.055 56.076,394.118 55.833 C 394.181 55.594,394.346 55.500,394.702 55.500 C 395.058 55.500,395.222 55.406,395.285 55.167 C 395.333 54.982,395.512 54.833,395.686 54.833 C 395.859 54.833,396.000 54.730,396.000 54.603 C 396.000 54.476,396.150 54.333,396.333 54.285 C 396.517 54.237,396.667 54.078,396.667 53.932 C 396.667 53.786,396.779 53.667,396.917 53.667 C 397.056 53.667,397.167 53.519,397.167 53.333 C 397.167 53.111,397.278 53.000,397.500 53.000 C 397.715 53.000,397.833 52.889,397.833 52.686 C 397.833 52.512,397.982 52.333,398.167 52.285 C 398.409 52.222,398.500 52.058,398.500 51.682 C 398.500 51.335,398.582 51.167,398.750 51.167 C 398.925 51.167,399.000 50.991,399.000 50.583 C 399.000 50.111,399.063 50.000,399.333 50.000 C 399.626 50.000,399.667 49.889,399.667 49.083 C 399.667 48.579,399.742 48.167,399.833 48.167 C 399.939 48.167,400.000 46.944,400.000 44.833 C 400.000 42.722,399.939 41.500,399.833 41.500 C 399.742 41.500,399.667 41.218,399.667 40.873 C 399.667 40.427,399.571 40.187,399.333 40.039 C 399.145 39.921,399.000 39.650,399.000 39.415 C 399.000 39.157,398.905 39.000,398.750 39.000 C 398.583 39.000,398.500 38.833,398.500 38.501 C 398.500 38.183,398.379 37.927,398.167 37.795 C 397.983 37.680,397.833 37.492,397.833 37.377 C 397.833 37.261,397.683 37.167,397.500 37.167 C 397.278 37.167,397.167 37.056,397.167 36.833 C 397.167 36.650,397.063 36.500,396.936 36.500 C 396.809 36.500,396.666 36.350,396.618 36.167 C 396.570 35.983,396.412 35.833,396.266 35.833 C 396.120 35.833,396.000 35.721,396.000 35.583 C 396.000 35.446,395.887 35.333,395.750 35.333 C 395.613 35.333,395.350 35.183,395.167 35.000 C 394.983 34.817,394.692 34.667,394.519 34.667 C 394.346 34.667,394.167 34.518,394.118 34.333 C 394.052 34.078,393.891 34.000,393.432 34.000 C 393.011 34.000,392.833 33.926,392.833 33.750 C 392.833 33.559,392.623 33.500,391.936 33.500 C 391.179 33.500,391.025 33.448,390.952 33.167 C 390.867 32.842,390.724 32.833,385.600 32.833 C 380.517 32.833,380.329 32.822,380.128 32.500 C 379.989 32.277,379.739 32.167,379.377 32.167 C 379.005 32.167,378.833 32.088,378.833 31.917 C 378.833 31.778,378.685 31.667,378.500 31.667 C 378.222 31.667,378.167 31.556,378.167 31.000 C 378.167 30.444,378.222 30.333,378.500 30.333 C 378.722 30.333,378.833 30.222,378.833 30.000 C 378.833 29.815,378.944 29.667,379.083 29.667 C 379.221 29.667,379.333 29.554,379.333 29.417 C 379.333 29.278,379.481 29.167,379.667 29.167 C 379.889 29.167,380.000 29.056,380.000 28.833 C 380.000 28.511,380.111 28.500,383.417 28.500 C 386.722 28.500,386.833 28.511,386.833 28.833 C 386.833 29.039,386.945 29.167,387.125 29.167 C 387.544 29.169,388.667 30.254,388.667 30.658 C 388.667 30.889,388.775 31.000,389.000 31.000 C 389.222 31.000,389.333 31.111,389.333 31.333 C 389.333 31.660,389.444 31.667,394.667 31.667 L 400.000 31.667 400.000 30.083 C 400.000 29.139,399.933 28.500,399.833 28.500 C 399.742 28.500,399.667 28.087,399.667 27.583 C 399.667 26.778,399.626 26.667,399.333 26.667 C 399.063 26.667,399.000 26.556,399.000 26.083 C 399.000 25.676,398.925 25.500,398.750 25.500 C 398.576 25.500,398.500 25.325,398.500 24.928 C 398.500 24.502,398.415 24.329,398.167 24.250 C 397.983 24.192,397.833 24.037,397.833 23.905 C 397.833 23.774,397.683 23.667,397.500 23.667 C 397.253 23.667,397.167 23.556,397.167 23.237 C 397.167 22.760,396.351 21.833,395.931 21.833 C 395.787 21.833,395.576 21.683,395.461 21.500 C 395.347 21.317,395.167 21.167,395.063 21.167 C 394.958 21.167,394.833 21.017,394.785 20.833 C 394.735 20.641,394.558 20.500,394.367 20.500 C 394.185 20.500,393.992 20.387,393.940 20.250 C 393.885 20.107,393.636 20.000,393.358 20.000 C 393.012 20.000,392.847 19.904,392.785 19.667 C 392.714 19.396,392.558 19.333,391.952 19.333 C 391.346 19.333,391.189 19.271,391.118 19.000 C 391.046 18.723,390.891 18.667,390.200 18.667 C 389.615 18.667,389.341 18.593,389.273 18.417 C 389.190 18.201,388.386 18.167,383.442 18.167 C 378.548 18.167,377.677 18.203,377.500 18.417 M253.083 28.833 C 253.142 29.017,253.299 29.167,253.433 29.167 C 253.567 29.167,253.720 29.279,253.773 29.417 C 253.826 29.554,253.973 29.667,254.101 29.667 C 254.229 29.667,254.333 29.782,254.333 29.922 C 254.333 30.062,254.446 30.220,254.583 30.273 C 254.774 30.346,254.833 30.660,254.833 31.601 C 254.833 32.585,254.783 32.833,254.583 32.833 C 254.444 32.833,254.333 32.981,254.333 33.167 C 254.333 33.350,254.229 33.500,254.101 33.500 C 253.973 33.500,253.826 33.612,253.773 33.750 C 253.720 33.887,253.567 34.000,253.433 34.000 C 253.299 34.000,253.142 34.150,253.083 34.333 C 252.982 34.654,252.831 34.667,249.072 34.667 L 245.167 34.667 245.167 31.583 L 245.167 28.500 249.072 28.500 C 252.831 28.500,252.982 28.512,253.083 28.833 M321.167 28.833 C 321.167 29.056,321.278 29.167,321.500 29.167 C 321.685 29.167,321.833 29.278,321.833 29.417 C 321.833 29.554,321.939 29.667,322.069 29.667 C 322.237 29.667,322.320 29.938,322.360 30.625 C 322.447 32.090,322.350 32.833,322.073 32.833 C 321.941 32.833,321.833 32.983,321.833 33.167 C 321.833 33.389,321.722 33.500,321.500 33.500 C 321.315 33.500,321.167 33.611,321.167 33.750 C 321.167 33.918,320.998 34.000,320.651 34.000 C 320.276 34.000,320.112 34.091,320.048 34.333 C 319.964 34.654,319.821 34.667,316.231 34.667 L 312.500 34.667 312.500 31.583 L 312.500 28.500 316.833 28.500 C 321.056 28.500,321.167 28.509,321.167 28.833 M284.333 33.016 C 284.333 33.724,284.388 33.879,284.667 33.952 C 284.968 34.031,285.000 34.179,285.000 35.506 C 285.000 36.523,285.064 36.998,285.208 37.056 C 285.323 37.103,284.910 37.146,284.292 37.154 L 283.167 37.167 283.167 36.245 C 283.167 35.579,283.236 35.296,283.417 35.227 C 283.613 35.152,283.667 34.813,283.667 33.649 C 283.667 32.278,283.692 32.167,284.000 32.167 C 284.290 32.167,284.333 32.278,284.333 33.016 " stroke="none" fill="#fcfcfc" fill-rule="evenodd"></path><path id="path1" d="M32.167 6.167 C 32.167 6.479,32.056 6.500,30.434 6.500 C 29.049 6.500,28.683 6.550,28.606 6.750 C 28.546 6.907,28.291 7.000,27.922 7.000 C 27.444 7.000,27.333 7.063,27.333 7.333 C 27.333 7.635,27.222 7.667,26.151 7.667 C 25.109 7.667,24.958 7.706,24.882 8.000 C 24.816 8.250,24.654 8.333,24.231 8.333 C 23.840 8.333,23.667 8.410,23.667 8.583 C 23.667 8.775,23.454 8.833,22.750 8.833 C 21.944 8.833,21.833 8.874,21.833 9.167 C 21.833 9.428,21.722 9.500,21.318 9.500 C 20.942 9.500,20.778 9.591,20.715 9.833 C 20.667 10.018,20.488 10.167,20.314 10.167 C 20.141 10.167,20.000 10.279,20.000 10.417 C 20.000 10.570,19.844 10.667,19.597 10.667 C 19.022 10.667,18.667 10.832,18.667 11.101 C 18.667 11.229,18.554 11.333,18.417 11.333 C 18.278 11.333,18.167 11.481,18.167 11.667 C 18.167 11.925,18.056 12.000,17.675 12.000 C 17.405 12.000,17.123 12.099,17.050 12.221 C 16.977 12.342,16.785 12.490,16.625 12.549 C 16.465 12.608,16.333 12.771,16.333 12.911 C 16.333 13.056,16.188 13.167,16.000 13.167 C 15.778 13.167,15.667 13.278,15.667 13.500 C 15.667 13.722,15.556 13.833,15.333 13.833 C 15.111 13.833,15.000 13.944,15.000 14.167 C 15.000 14.352,14.889 14.500,14.750 14.500 C 14.612 14.500,14.500 14.612,14.500 14.750 C 14.500 14.889,14.352 15.000,14.167 15.000 C 13.944 15.000,13.833 15.111,13.833 15.333 C 13.833 15.556,13.722 15.667,13.500 15.667 C 13.278 15.667,13.167 15.778,13.167 16.000 C 13.167 16.188,13.056 16.333,12.911 16.333 C 12.771 16.333,12.613 16.446,12.560 16.583 C 12.508 16.721,12.360 16.833,12.232 16.833 C 12.104 16.833,12.000 16.983,12.000 17.167 C 12.000 17.389,11.889 17.500,11.667 17.500 C 11.444 17.500,11.333 17.611,11.333 17.833 C 11.333 18.017,11.227 18.167,11.097 18.167 C 10.966 18.167,10.809 18.397,10.748 18.678 C 10.686 18.959,10.530 19.230,10.401 19.279 C 10.272 19.329,10.167 19.502,10.167 19.665 C 10.167 19.828,10.017 20.000,9.833 20.048 C 9.594 20.111,9.500 20.276,9.500 20.632 C 9.500 20.988,9.406 21.152,9.167 21.215 C 8.924 21.278,8.833 21.442,8.833 21.818 C 8.833 22.165,8.752 22.333,8.583 22.333 C 8.446 22.333,8.333 22.467,8.333 22.630 C 8.333 22.793,8.183 23.054,8.000 23.211 C 7.770 23.409,7.667 23.703,7.667 24.165 C 7.667 24.722,7.611 24.833,7.333 24.833 C 7.056 24.833,7.000 24.944,7.000 25.500 C 7.000 25.981,6.931 26.167,6.750 26.167 C 6.552 26.167,6.500 26.407,6.500 27.333 C 6.500 28.389,6.468 28.500,6.167 28.500 C 5.864 28.500,5.833 28.611,5.833 29.690 C 5.833 30.616,5.771 30.926,5.551 31.086 C 5.350 31.233,5.248 31.611,5.198 32.397 C 5.148 33.191,5.063 33.500,4.897 33.500 C 4.539 33.500,4.558 41.135,4.917 41.273 C 5.096 41.342,5.167 41.623,5.167 42.268 C 5.167 43.056,5.208 43.167,5.500 43.167 C 5.810 43.167,5.833 43.278,5.833 44.750 C 5.833 46.222,5.857 46.333,6.167 46.333 C 6.468 46.333,6.500 46.444,6.500 47.500 C 6.500 48.426,6.552 48.667,6.750 48.667 C 6.926 48.667,7.000 48.844,7.000 49.266 C 7.000 49.724,7.078 49.885,7.333 49.952 C 7.577 50.016,7.667 50.179,7.667 50.563 C 7.667 50.906,7.782 51.158,8.000 51.295 C 8.190 51.413,8.333 51.683,8.333 51.923 C 8.333 52.155,8.446 52.387,8.583 52.440 C 8.728 52.495,8.833 52.745,8.833 53.033 C 8.833 53.391,8.927 53.556,9.167 53.618 C 9.350 53.666,9.500 53.841,9.500 54.006 C 9.500 54.484,9.683 54.833,9.934 54.833 C 10.062 54.833,10.167 54.983,10.167 55.167 C 10.167 55.350,10.273 55.500,10.403 55.500 C 10.534 55.500,10.691 55.730,10.752 56.011 C 10.814 56.292,10.970 56.563,11.099 56.612 C 11.228 56.662,11.333 56.844,11.333 57.018 C 11.333 57.222,11.451 57.333,11.667 57.333 C 11.889 57.333,12.000 57.444,12.000 57.667 C 12.000 57.855,12.111 58.000,12.255 58.000 C 12.396 58.000,12.554 58.112,12.606 58.250 C 12.659 58.387,12.807 58.500,12.934 58.500 C 13.062 58.500,13.167 58.650,13.167 58.833 C 13.167 59.056,13.278 59.167,13.500 59.167 C 13.722 59.167,13.833 59.278,13.833 59.500 C 13.833 59.722,13.944 59.833,14.167 59.833 C 14.352 59.833,14.500 59.944,14.500 60.083 C 14.500 60.221,14.612 60.333,14.750 60.333 C 14.889 60.333,15.000 60.481,15.000 60.667 C 15.000 60.889,15.111 61.000,15.333 61.000 C 15.556 61.000,15.667 61.111,15.667 61.333 C 15.667 61.556,15.778 61.667,16.000 61.667 C 16.222 61.667,16.333 61.778,16.333 62.000 C 16.333 62.192,16.444 62.333,16.595 62.333 C 16.739 62.333,16.970 62.446,17.107 62.583 C 17.245 62.721,17.539 62.833,17.762 62.833 C 18.056 62.833,18.167 62.925,18.167 63.167 C 18.167 63.350,18.271 63.500,18.399 63.500 C 18.527 63.500,18.673 63.608,18.723 63.741 C 18.774 63.873,19.082 64.032,19.408 64.093 C 19.749 64.157,20.000 64.302,20.000 64.435 C 20.000 64.589,20.197 64.667,20.583 64.667 C 21.056 64.667,21.167 64.730,21.167 65.000 C 21.167 65.222,21.278 65.333,21.500 65.333 C 21.683 65.333,21.833 65.438,21.833 65.566 C 21.833 65.865,22.199 66.000,23.014 66.000 C 23.483 66.000,23.667 66.070,23.667 66.250 C 23.667 66.421,23.838 66.500,24.210 66.500 C 24.573 66.500,24.822 66.611,24.961 66.833 C 25.135 67.111,25.350 67.167,26.251 67.167 C 27.222 67.167,27.333 67.201,27.333 67.500 C 27.333 67.809,27.444 67.833,28.833 67.833 C 30.056 67.833,30.333 67.880,30.333 68.083 C 30.333 68.275,30.544 68.333,31.231 68.333 C 31.988 68.333,32.141 68.385,32.215 68.667 C 32.302 69.000,32.411 69.001,54.610 68.959 L 76.917 68.917 76.917 65.000 L 76.917 61.083 67.358 61.040 C 58.742 61.002,57.809 60.971,57.899 60.735 C 57.955 60.591,58.000 60.441,58.000 60.403 C 58.000 60.365,58.094 60.332,58.208 60.330 C 58.462 60.327,59.167 59.608,59.167 59.352 C 59.167 59.250,59.317 59.167,59.500 59.167 C 59.770 59.167,59.833 59.056,59.833 58.583 C 59.833 58.111,59.897 58.000,60.167 58.000 C 60.355 58.000,60.500 57.889,60.500 57.745 C 60.500 57.604,60.612 57.446,60.750 57.394 C 60.887 57.341,61.000 57.164,61.000 57.002 C 61.000 56.839,61.150 56.666,61.333 56.618 C 61.576 56.555,61.667 56.391,61.667 56.016 C 61.667 55.611,61.738 55.500,62.000 55.500 C 62.222 55.500,62.333 55.389,62.333 55.167 C 62.333 54.981,62.444 54.833,62.583 54.833 C 62.758 54.833,62.833 54.657,62.833 54.250 C 62.833 53.778,62.897 53.667,63.167 53.667 C 63.389 53.667,63.500 53.556,63.500 53.333 C 63.500 53.150,63.609 53.000,63.742 53.000 C 63.888 53.000,64.029 52.766,64.094 52.417 C 64.157 52.083,64.303 51.833,64.435 51.833 C 64.605 51.833,64.667 51.588,64.667 50.917 C 64.667 50.111,64.707 50.000,65.000 50.000 C 65.222 50.000,65.333 49.889,65.333 49.667 C 65.333 49.483,65.438 49.333,65.566 49.333 C 65.886 49.333,66.000 48.959,66.000 47.903 C 66.000 47.211,66.059 47.000,66.250 47.000 C 66.437 47.000,66.500 46.800,66.500 46.203 C 66.500 45.598,66.580 45.349,66.833 45.167 C 67.131 44.952,67.167 44.735,67.167 43.130 C 67.167 41.444,67.187 41.333,67.500 41.333 C 67.824 41.333,67.833 41.222,67.833 37.417 C 67.833 33.611,67.824 33.500,67.500 33.500 C 67.187 33.500,67.167 33.389,67.167 31.667 C 67.167 30.056,67.126 29.793,66.833 29.500 C 66.626 29.293,66.500 28.944,66.500 28.578 C 66.500 28.209,66.407 27.954,66.250 27.894 C 66.063 27.822,66.000 27.524,66.000 26.717 C 66.000 25.776,65.957 25.624,65.667 25.548 C 65.482 25.500,65.333 25.321,65.333 25.147 C 65.333 24.944,65.215 24.833,65.000 24.833 C 64.707 24.833,64.667 24.722,64.667 23.917 C 64.667 23.213,64.609 23.000,64.417 23.000 C 64.279 23.000,64.167 22.856,64.167 22.680 C 64.167 22.184,63.987 21.833,63.732 21.833 C 63.604 21.833,63.500 21.683,63.500 21.500 C 63.500 21.278,63.389 21.167,63.167 21.167 C 62.897 21.167,62.833 21.056,62.833 20.583 C 62.833 20.197,62.755 20.000,62.602 20.000 C 62.469 20.000,62.324 19.751,62.261 19.417 C 62.195 19.067,62.054 18.833,61.909 18.833 C 61.776 18.833,61.667 18.683,61.667 18.500 C 61.667 18.285,61.556 18.167,61.354 18.167 C 61.138 18.167,61.010 18.008,60.939 17.653 C 60.864 17.281,60.697 17.086,60.335 16.950 C 59.918 16.792,59.833 16.668,59.833 16.213 C 59.833 15.778,59.766 15.667,59.500 15.667 C 59.278 15.667,59.167 15.556,59.167 15.333 C 59.167 15.150,59.062 15.000,58.934 15.000 C 58.807 15.000,58.659 14.887,58.606 14.750 C 58.554 14.612,58.396 14.500,58.255 14.500 C 58.111 14.500,58.000 14.355,58.000 14.167 C 58.000 13.889,57.889 13.833,57.333 13.833 C 56.862 13.833,56.667 13.762,56.667 13.592 C 56.667 13.298,55.952 12.500,55.689 12.500 C 55.585 12.500,55.500 12.387,55.500 12.250 C 55.500 12.111,55.352 12.000,55.167 12.000 C 54.983 12.000,54.833 11.896,54.833 11.768 C 54.833 11.517,54.484 11.333,54.006 11.333 C 53.841 11.333,53.666 11.183,53.618 11.000 C 53.555 10.757,53.391 10.667,53.016 10.667 C 52.668 10.667,52.500 10.585,52.500 10.417 C 52.500 10.279,52.359 10.167,52.186 10.167 C 52.012 10.167,51.833 10.018,51.785 9.833 C 51.722 9.594,51.558 9.500,51.202 9.500 C 50.846 9.500,50.681 9.406,50.618 9.167 C 50.546 8.888,50.391 8.833,49.682 8.833 C 49.039 8.833,48.833 8.773,48.833 8.583 C 48.833 8.446,48.692 8.333,48.519 8.333 C 48.346 8.333,48.167 8.184,48.118 8.000 C 48.042 7.706,47.891 7.667,46.849 7.667 C 45.778 7.667,45.667 7.635,45.667 7.333 C 45.667 7.060,45.554 6.999,45.042 6.995 C 44.698 6.992,44.271 6.879,44.093 6.745 C 43.855 6.565,43.294 6.500,41.968 6.500 C 40.278 6.500,40.167 6.479,40.167 6.167 C 40.167 5.843,40.056 5.833,36.167 5.833 C 32.278 5.833,32.167 5.843,32.167 6.167 M39.000 16.000 C 39.000 16.216,39.111 16.333,39.316 16.333 C 39.489 16.333,39.674 16.446,39.727 16.583 C 39.783 16.729,40.033 16.833,40.328 16.833 C 40.722 16.833,40.833 16.907,40.833 17.167 C 40.833 17.350,40.912 17.500,41.009 17.500 C 41.105 17.500,41.293 17.762,41.427 18.083 C 41.629 18.565,41.758 18.667,42.169 18.667 C 42.661 18.667,42.667 18.677,42.667 19.583 C 42.667 20.389,42.707 20.500,43.000 20.500 C 43.310 20.500,43.333 20.611,43.333 22.083 C 43.333 23.556,43.310 23.667,43.000 23.667 C 42.707 23.667,42.667 23.778,42.667 24.583 C 42.667 25.389,42.626 25.500,42.333 25.500 C 42.117 25.500,42.000 25.611,42.000 25.816 C 42.000 25.989,41.895 26.171,41.766 26.221 C 41.637 26.270,41.481 26.541,41.419 26.822 C 41.357 27.103,41.200 27.333,41.070 27.333 C 40.940 27.333,40.833 27.446,40.833 27.583 C 40.833 27.750,40.667 27.833,40.335 27.833 C 40.017 27.833,39.761 27.954,39.628 28.167 C 39.489 28.389,39.239 28.500,38.877 28.500 C 38.444 28.500,38.333 28.568,38.333 28.833 C 38.333 29.150,38.222 29.167,36.167 29.167 C 34.111 29.167,34.000 29.150,34.000 28.833 C 34.000 28.575,33.889 28.500,33.506 28.500 C 33.182 28.500,32.950 28.385,32.833 28.167 C 32.735 27.983,32.553 27.833,32.429 27.833 C 32.304 27.833,32.159 27.721,32.106 27.583 C 32.050 27.437,31.801 27.333,31.505 27.333 C 31.036 27.333,31.000 27.290,31.000 26.734 C 31.000 26.276,30.922 26.115,30.667 26.048 C 30.430 25.986,30.333 25.821,30.333 25.475 C 30.333 25.197,30.226 24.949,30.083 24.894 C 29.929 24.834,29.833 24.581,29.833 24.232 C 29.833 23.778,29.768 23.667,29.500 23.667 C 29.197 23.667,29.167 23.556,29.167 22.436 C 29.167 21.346,29.205 21.196,29.500 21.118 C 29.755 21.052,29.833 20.891,29.833 20.432 C 29.833 20.011,29.907 19.833,30.083 19.833 C 30.256 19.833,30.333 19.660,30.333 19.269 C 30.333 18.846,30.416 18.684,30.667 18.618 C 30.909 18.555,31.000 18.391,31.000 18.016 C 31.000 17.550,31.050 17.500,31.516 17.500 C 31.891 17.500,32.055 17.409,32.118 17.167 C 32.166 16.983,32.312 16.833,32.441 16.833 C 32.571 16.833,32.717 16.728,32.767 16.600 C 32.816 16.471,33.001 16.328,33.178 16.282 C 33.355 16.236,33.500 16.078,33.500 15.932 C 33.500 15.700,33.845 15.667,36.250 15.667 C 38.889 15.667,39.000 15.680,39.000 16.000 M22.382 30.667 C 22.454 30.942,22.609 31.000,23.278 31.000 C 23.906 31.000,24.133 31.074,24.295 31.333 C 24.413 31.524,24.683 31.667,24.923 31.667 C 25.155 31.667,25.387 31.779,25.440 31.917 C 25.492 32.054,25.640 32.167,25.768 32.167 C 25.896 32.167,26.000 32.277,26.000 32.411 C 26.000 32.545,26.150 32.735,26.333 32.833 C 26.552 32.950,26.667 33.182,26.667 33.506 C 26.667 33.889,26.742 34.000,27.000 34.000 C 27.269 34.000,27.333 34.111,27.333 34.575 C 27.333 34.929,27.436 35.208,27.600 35.300 C 28.140 35.602,28.113 39.500,27.571 39.500 C 27.405 39.500,27.333 39.700,27.333 40.167 C 27.333 40.722,27.278 40.833,27.000 40.833 C 26.784 40.833,26.667 40.944,26.667 41.149 C 26.667 41.322,26.561 41.505,26.432 41.554 C 26.304 41.604,26.148 41.874,26.086 42.155 C 26.024 42.437,25.867 42.667,25.737 42.667 C 25.607 42.667,25.500 42.770,25.500 42.895 C 25.500 43.044,25.206 43.163,24.659 43.235 C 24.158 43.302,23.780 43.445,23.724 43.590 C 23.667 43.739,23.405 43.833,23.050 43.833 C 22.609 43.833,22.448 43.914,22.382 44.167 C 22.305 44.461,22.154 44.500,21.083 44.500 C 20.012 44.500,19.862 44.461,19.785 44.167 C 19.722 43.924,19.558 43.833,19.182 43.833 C 18.835 43.833,18.667 43.752,18.667 43.583 C 18.667 43.409,18.491 43.333,18.083 43.333 C 17.611 43.333,17.500 43.270,17.500 43.000 C 17.500 42.730,17.389 42.667,16.917 42.667 C 16.405 42.667,16.333 42.615,16.333 42.248 C 16.333 42.018,16.183 41.702,16.000 41.545 C 15.817 41.388,15.667 41.163,15.667 41.046 C 15.667 40.929,15.517 40.833,15.333 40.833 C 15.044 40.833,15.000 40.722,15.000 39.995 C 15.000 39.403,14.926 39.128,14.750 39.060 C 14.553 38.985,14.500 38.639,14.500 37.417 C 14.500 36.195,14.553 35.849,14.750 35.773 C 14.926 35.705,15.000 35.430,15.000 34.839 C 15.000 34.197,15.060 34.000,15.255 34.000 C 15.396 34.000,15.559 33.874,15.617 33.721 C 15.676 33.568,15.862 33.305,16.029 33.138 C 16.196 32.970,16.333 32.683,16.333 32.500 C 16.333 32.240,16.444 32.167,16.839 32.167 C 17.157 32.167,17.383 32.064,17.451 31.888 C 17.657 31.350,18.164 31.000,18.736 31.000 C 19.471 31.000,19.833 30.856,19.833 30.566 C 19.833 30.146,22.271 30.243,22.382 30.667 M53.048 30.667 C 53.121 30.943,53.276 31.000,53.960 31.000 C 54.748 31.000,54.792 31.024,54.939 31.542 C 55.067 31.990,55.186 32.092,55.630 32.136 C 56.019 32.173,56.167 32.271,56.167 32.491 C 56.167 32.658,56.317 32.834,56.500 32.882 C 56.727 32.941,56.833 33.109,56.833 33.406 C 56.833 33.647,56.946 33.887,57.083 33.940 C 57.221 33.992,57.333 34.178,57.333 34.351 C 57.333 34.556,57.451 34.667,57.667 34.667 C 57.969 34.667,58.000 34.778,58.000 35.849 C 58.000 36.891,58.040 37.042,58.333 37.118 C 58.517 37.166,58.667 37.309,58.667 37.436 C 58.667 37.563,58.517 37.667,58.333 37.667 C 58.030 37.667,58.000 37.778,58.000 38.917 C 58.000 40.056,57.970 40.167,57.667 40.167 C 57.444 40.167,57.333 40.278,57.333 40.500 C 57.333 40.685,57.222 40.833,57.083 40.833 C 56.936 40.833,56.832 40.987,56.831 41.208 C 56.827 41.694,56.685 41.879,56.125 42.125 C 55.873 42.236,55.667 42.403,55.667 42.496 C 55.667 42.590,55.517 42.667,55.333 42.667 C 55.111 42.667,55.000 42.778,55.000 43.000 C 55.000 43.215,54.889 43.333,54.687 43.333 C 54.515 43.333,54.281 43.446,54.167 43.583 C 54.053 43.721,53.774 43.833,53.547 43.833 C 53.276 43.833,53.106 43.947,53.048 44.167 C 52.969 44.468,52.821 44.500,51.481 44.500 C 50.111 44.500,50.000 44.475,50.000 44.167 C 50.000 43.889,49.889 43.833,49.333 43.833 C 48.876 43.833,48.667 43.761,48.667 43.602 C 48.667 43.469,48.417 43.324,48.083 43.261 C 47.734 43.195,47.500 43.054,47.500 42.909 C 47.500 42.743,47.316 42.667,46.917 42.667 C 46.376 42.667,46.333 42.629,46.333 42.151 C 46.333 41.776,46.243 41.612,46.000 41.548 C 45.749 41.483,45.667 41.321,45.667 40.892 C 45.667 40.540,45.571 40.286,45.417 40.227 C 45.279 40.174,45.167 40.020,45.167 39.883 C 45.167 39.747,45.017 39.596,44.833 39.548 C 44.384 39.431,44.308 35.333,44.755 35.333 C 44.896 35.333,45.059 35.202,45.118 35.042 C 45.177 34.881,45.324 34.690,45.446 34.617 C 45.581 34.535,45.667 34.165,45.667 33.658 C 45.667 32.944,45.712 32.833,46.000 32.833 C 46.222 32.833,46.333 32.722,46.333 32.500 C 46.333 32.230,46.444 32.167,46.917 32.167 C 47.324 32.167,47.500 32.091,47.500 31.917 C 47.500 31.779,47.620 31.667,47.766 31.667 C 47.912 31.667,48.070 31.517,48.118 31.333 C 48.192 31.052,48.346 31.000,49.103 31.000 C 49.889 31.000,50.000 30.959,50.000 30.667 C 50.000 30.358,50.111 30.333,51.481 30.333 C 52.821 30.333,52.969 30.365,53.048 30.667 M38.333 46.000 C 38.333 46.265,38.444 46.333,38.877 46.333 C 39.239 46.333,39.489 46.444,39.628 46.667 C 39.747 46.857,40.017 47.000,40.257 47.000 C 40.488 47.000,40.720 47.112,40.773 47.250 C 40.826 47.387,40.968 47.500,41.090 47.500 C 41.211 47.500,41.356 47.643,41.412 47.818 C 41.467 47.993,41.622 48.178,41.756 48.229 C 41.896 48.283,42.000 48.539,42.000 48.828 C 42.000 49.222,42.073 49.333,42.333 49.333 C 42.626 49.333,42.667 49.444,42.667 50.250 C 42.667 51.056,42.707 51.167,43.000 51.167 C 43.303 51.167,43.333 51.278,43.333 52.405 C 43.333 53.498,43.294 53.657,43.000 53.750 C 42.721 53.839,42.667 54.002,42.667 54.761 C 42.667 55.455,42.608 55.667,42.417 55.667 C 42.279 55.667,42.167 55.779,42.167 55.917 C 42.167 56.056,42.019 56.167,41.833 56.167 C 41.611 56.167,41.500 56.278,41.500 56.500 C 41.500 56.722,41.389 56.833,41.167 56.833 C 40.897 56.833,40.833 56.944,40.833 57.417 C 40.833 57.972,40.806 58.000,40.250 58.000 C 39.863 58.000,39.667 58.078,39.667 58.231 C 39.667 58.365,39.415 58.510,39.075 58.574 C 38.749 58.635,38.441 58.793,38.390 58.926 C 38.252 59.285,34.745 59.277,34.606 58.917 C 34.553 58.778,34.304 58.666,34.047 58.664 C 33.328 58.661,32.833 58.484,32.833 58.231 C 32.833 58.104,32.683 58.000,32.500 58.000 C 32.278 58.000,32.167 57.889,32.167 57.667 C 32.167 57.397,32.056 57.333,31.583 57.333 C 31.028 57.333,31.000 57.306,31.000 56.750 C 31.000 56.278,30.937 56.167,30.667 56.167 C 30.397 56.167,30.333 56.056,30.333 55.583 C 30.333 55.176,30.258 55.000,30.083 55.000 C 29.903 55.000,29.833 54.815,29.833 54.333 C 29.833 53.778,29.778 53.667,29.500 53.667 C 29.196 53.667,29.167 53.556,29.167 52.417 C 29.167 51.278,29.196 51.167,29.500 51.167 C 29.770 51.167,29.833 51.056,29.833 50.578 C 29.833 50.209,29.926 49.954,30.083 49.894 C 30.222 49.840,30.333 49.593,30.333 49.335 C 30.333 49.012,30.434 48.846,30.667 48.785 C 30.922 48.718,31.000 48.558,31.000 48.099 C 31.000 47.575,31.051 47.500,31.407 47.500 C 31.631 47.500,31.863 47.420,31.923 47.323 C 31.983 47.226,32.213 47.078,32.433 46.994 C 32.653 46.910,32.833 46.727,32.833 46.587 C 32.833 46.408,33.005 46.333,33.417 46.333 C 33.889 46.333,34.000 46.270,34.000 46.000 C 34.000 45.684,34.111 45.667,36.167 45.667 C 38.222 45.667,38.333 45.684,38.333 46.000 " stroke="none" fill="#fc34cc" fill-rule="evenodd"></path></g></svg>